<svg width="295" height="250" viewBox="0 0 295 250" fill="none" xmlns="http://www.w3.org/2000/svg">
<g clip-path="url(#clip0_207_17958)">
<path d="M128.776 141.065C127.903 153.669 129.536 166.029 131.047 178.47C131.308 180.62 131.561 182.767 131.807 184.917C132.453 190.53 133.046 196.146 133.55 201.778C134.076 207.643 134.506 213.523 134.803 219.413C134.996 223.221 132.984 225.923 129.857 226.937C126.366 228.065 122.572 228.823 118.984 229.47C113.634 230.429 108.188 230.75 102.778 230.41C97.313 230.068 91.9054 229.06 86.5312 227.948C83.1963 227.26 77.0548 227.714 75.5535 223.534C74.9677 221.897 74.9486 220.079 74.9462 218.312C74.9337 205.414 75.3765 192.503 74.688 179.633C74.1334 169.323 72.8425 158.994 70.0526 149.141C68.0708 142.139 65.0514 135.61 62.4576 128.891C61.2599 125.787 59.7131 122.979 58.69 119.744C57.6094 116.328 56.8492 112.786 56.4308 109.187C56.3066 108.122 56.2132 107.021 56.4362 105.977C56.7804 104.368 57.8228 103.085 58.8723 101.935C60.5242 100.128 62.2933 98.4588 64.1604 96.9421C65.4011 95.9337 66.202 94.9361 67.5933 94.1261C69.3098 93.1285 71.0286 92.1337 72.745 91.1362C76.178 89.1411 79.6134 87.1459 83.0487 85.1535C83.228 85.0475 83.4096 84.9415 83.5842 84.8192C83.8663 84.6235 84.1268 84.3925 84.3109 84.0826C84.3755 83.9739 84.428 83.8597 84.4687 83.7428C84.703 83.1149 84.6862 82.3729 84.8177 81.6934C85.5827 77.8119 90.4572 77.9695 93.2207 77.7657C96.9382 77.4911 100.694 77.8554 104.316 78.8529C107.471 79.7227 110.737 81.253 112.499 84.3571C113.142 85.4852 113.402 86.2897 114.545 86.76C115.693 87.2356 116.893 87.5075 118.047 87.9614C120.335 88.8665 122.635 89.7608 124.997 90.3832C127.318 90.9948 129.742 91.3672 131.822 92.6936C134.787 94.5855 135.523 98.0212 135.363 101.634C135.291 103.324 135.074 105.029 134.813 106.67C132.991 118.187 129.584 129.402 128.776 141.065Z" fill="#D5E2E5"/>
<path d="M108.828 89.0187C107.456 90.3207 105.852 91.1525 104.035 91.4542C102.144 91.7722 100.234 91.938 98.3216 91.9108C96.5717 91.8864 95.46 91.533 93.9492 90.4838C92.3187 89.3585 90.6764 88.2169 89.2802 86.7409C88.1782 85.5776 86.4258 83.4466 86.4378 81.5955C86.445 80.1902 87.327 78.5702 88.5582 78.2712C90.093 77.9016 91.6613 77.8798 93.22 77.7657C96.9374 77.4911 100.693 77.8554 104.315 78.8529C106.294 79.3993 108.276 80.1603 109.969 81.4786C110.932 82.2288 111.303 82.6991 111.293 84.0609C111.286 85.2813 110.903 86.5045 110.213 87.4395C109.78 88.0239 109.318 88.5512 108.828 89.0187Z" fill="#9FB7BD"/>
<path d="M138.836 105.232C140.55 109.258 142.266 113.283 143.983 117.309C146.538 123.302 149.101 129.318 152.304 134.895C153.746 137.407 155.644 139.269 157.425 141.419C159.529 143.955 161.695 146.447 163.844 148.94C165.632 151.014 167.514 153.235 168.4 156.015C168.752 157.124 169.249 158.361 169.137 159.551C168.991 161.068 168.377 162.658 167.657 163.93C165.945 166.956 163.017 169.111 159.854 168.505C156.416 167.847 153.332 165.73 150.404 163.694C148.781 162.566 147.155 161.438 145.532 160.307C143.509 158.905 141.477 157.488 139.668 155.749C136.682 152.878 134.387 149.198 132.312 145.431C130.786 142.664 129.357 139.821 128.204 136.828C126.419 132.194 125.317 127.257 124.387 122.305C123.072 115.292 121.518 106.007 124.841 99.402C126.462 96.1783 129.072 90.4512 132.806 93.8162C133.966 94.8627 134.767 96.48 135.62 97.8255C136.789 99.6656 137.506 102.117 138.379 104.161C138.53 104.517 138.683 104.876 138.836 105.232Z" fill="#D5E2E5"/>
<path d="M63.612 157.219C63.569 157.88 63.5331 158.546 63.5045 159.217C63.3754 162.387 63.0431 166.499 60.8055 168.742C59.3233 170.228 57.3367 170.943 55.3644 171.131C52.4622 171.403 49.4643 170.576 47.0593 168.703C44.6974 166.863 42.9116 164.058 42.6367 160.767C42.4789 158.88 42.7061 156.986 42.9547 155.113C43.0312 154.534 43.1102 153.955 43.1914 153.376C44.205 146.138 45.5366 138.956 47.179 131.867C48.7783 124.969 50.5951 118.057 53.416 111.655C54.4345 109.342 56.3135 104.197 58.9982 104.075C60.5425 104.004 61.0445 105.45 62.1968 106.173C63.1722 106.784 64.3747 106.831 65.374 107.562C67.3702 109.022 68.8595 111.316 69.8182 113.757C69.9926 114.2 70.1553 114.656 70.3035 115.113C71.353 118.377 71.4988 121.702 71.6614 125.124C71.8 128.032 70.4421 131.354 69.5122 134.034C68.0945 138.13 66.4044 142.115 65.2927 146.339C64.3436 149.948 63.8511 153.52 63.612 157.219Z" fill="#D5E2E5"/>
<path d="M82.4505 111.427C81.9365 110.851 81.1548 110.554 80.4065 110.758C79.7826 110.93 79.3068 111.473 79.1873 112.191C79.0749 112.881 79.3188 113.637 79.7324 114.145C80.7532 115.398 82.6059 115.292 82.986 113.449C83.1509 112.658 82.9023 111.933 82.4505 111.427Z" fill="#342C39"/>
<path d="M113.641 105.249C113.125 104.672 112.343 104.376 111.597 104.58C110.973 104.749 110.497 105.295 110.378 106.013C110.265 106.703 110.509 107.459 110.923 107.967C111.941 109.22 113.796 109.111 114.176 107.271C114.339 106.477 114.093 105.754 113.641 105.249Z" fill="#342C39"/>
<path d="M88.3577 143.398C87.8413 142.821 87.0621 142.525 86.3138 142.729C85.6898 142.898 85.2117 143.444 85.097 144.161C84.9822 144.852 85.226 145.607 85.6396 146.116C86.658 147.369 88.5155 147.26 88.8933 145.42C89.0559 144.629 88.8095 143.906 88.3577 143.398Z" fill="#342C39"/>
<path d="M119.548 137.219C119.032 136.643 118.252 136.347 117.504 136.548C116.88 136.719 116.402 137.266 116.285 137.983C116.173 138.674 116.416 139.429 116.828 139.935C117.848 141.188 119.706 141.082 120.084 139.242C120.246 138.448 120 137.725 119.548 137.219Z" fill="#342C39"/>
<path d="M93.7915 175.368C93.2776 174.792 92.4958 174.496 91.7499 174.7C91.1236 174.868 90.6479 175.414 90.5307 176.132C90.4183 176.822 90.6598 177.578 91.0734 178.086C92.0942 179.337 93.9493 179.231 94.327 177.391C94.492 176.597 94.2458 175.877 93.7915 175.368Z" fill="#342C39"/>
<path d="M124.982 169.187C124.468 168.614 123.686 168.318 122.94 168.519C122.314 168.69 121.838 169.236 121.719 169.951C121.606 170.644 121.85 171.4 122.264 171.905C123.285 173.158 125.14 173.052 125.517 171.212C125.682 170.419 125.436 169.696 124.982 169.187Z" fill="#342C39"/>
<path d="M112.173 86.3631C110.93 89.9266 108.984 93.153 106.5 95.7461C105.8 96.4773 105.058 97.1541 104.282 97.7793C104.121 97.907 104.325 98.0674 104.43 98.1082C104.611 98.1761 104.839 98.1489 104.996 98.0212C107.767 95.7896 110.086 92.8431 111.733 89.4672C112.202 88.505 112.613 87.5102 112.972 86.4909C113.089 86.1484 112.276 86.0696 112.173 86.3631Z" fill="#9FB7BD"/>
<path d="M131.915 108.546C130.215 115.961 129.053 123.531 128.456 131.163C128.286 133.319 128.164 135.477 128.083 137.641C128.07 137.967 128.898 137.98 128.91 137.641C129.194 129.986 130.036 122.359 131.43 114.863C131.824 112.748 132.262 110.641 132.742 108.546C132.807 108.269 131.994 108.201 131.915 108.546Z" fill="#9FB7BD"/>
<path d="M135.343 111.878C133.179 116.018 131.523 120.484 130.43 125.137C130.344 125.504 131.159 125.559 131.229 125.265C132.321 120.612 133.975 116.146 136.141 112.006C136.294 111.71 135.491 111.598 135.343 111.878Z" fill="#9FB7BD"/>
<path d="M133.266 94.1995C133.16 93.9087 132.345 93.9875 132.467 94.3273C133.452 97.0427 133.225 100.06 132.795 102.887C132.749 103.186 133.569 103.235 133.622 102.887C134.059 100.008 134.265 96.9639 133.266 94.1995Z" fill="#9FB7BD"/>
<path d="M154.351 139.516C150.291 139.16 146.158 140.291 142.711 142.762C141.743 143.457 140.832 144.246 139.993 145.132C139.72 145.42 140.509 145.58 140.707 145.374C143.505 142.422 147.119 140.541 150.911 140.046C151.979 139.91 153.06 139.883 154.131 139.978C154.274 139.989 154.573 140 154.64 139.81C154.707 139.628 154.473 139.527 154.351 139.516Z" fill="#9FB7BD"/>
<path d="M149.658 135.088C145.453 134.936 141.274 134.208 137.22 132.927C137.055 132.876 136.787 132.862 136.653 133.014C136.526 133.164 136.667 133.3 136.801 133.343C140.992 134.667 145.312 135.412 149.658 135.567C149.78 135.572 150.072 135.523 150.072 135.327C150.072 135.129 149.773 135.091 149.658 135.088Z" fill="#9FB7BD"/>
<path d="M161.986 147.162C161.862 147.013 161.578 147.026 161.42 147.075C157.303 148.399 154.16 152.063 152.321 156.352C151.767 157.646 151.322 158.992 150.961 160.367C150.865 160.731 151.683 160.788 151.759 160.495C152.945 155.964 155.164 151.593 158.769 149.043C159.727 148.366 160.753 147.839 161.838 147.491C161.977 147.448 162.111 147.312 161.986 147.162Z" fill="#9FB7BD"/>
<path d="M73.6144 117.236C73.5547 116.89 72.7371 116.937 72.7873 117.236C73.2774 120.106 73.2057 123.044 72.8662 125.934C72.6941 127.393 72.4598 128.839 72.1968 130.28C71.9434 131.65 71.6996 133.033 71.3625 134.382C71.0182 135.757 70.5425 137.124 69.7249 138.23C69.4763 138.565 70.2676 138.703 70.4397 138.472C71.9506 136.428 72.3713 133.702 72.8566 131.169C73.4136 128.241 73.8942 125.276 73.9611 122.275C73.9993 120.584 73.8965 118.896 73.6144 117.236Z" fill="#9FB7BD"/>
<path d="M69.3282 129.598C69.027 132.511 68.4293 135.374 67.5448 138.13C67.4324 138.48 68.2476 138.551 68.3432 138.258C69.2397 135.461 69.8494 132.555 70.1554 129.598C70.1864 129.285 69.3617 129.252 69.3282 129.598Z" fill="#9FB7BD"/>
<path d="M62.7802 153.977C61.9769 151.875 60.7625 149.948 59.1704 148.527C57.5041 147.045 55.4577 146.189 53.3396 146.151C52.1323 146.132 50.9346 146.396 49.8302 146.939C49.6652 147.021 49.6962 147.189 49.8302 147.279C49.9951 147.391 50.2437 147.363 50.4134 147.279C52.1873 146.404 54.2027 146.464 56.0052 147.203C57.7719 147.931 59.2923 149.353 60.4182 151.044C61.0494 151.987 61.5658 153.02 61.9817 154.104C62.0916 154.395 62.9069 154.314 62.7802 153.977Z" fill="#9FB7BD"/>
<path d="M56.5097 120.973C55.2762 118.013 54.865 114.673 55.324 111.438C55.3647 111.136 54.5446 111.093 54.4968 111.438C54.033 114.713 54.4658 118.106 55.7137 121.101C55.8333 121.389 56.6484 121.302 56.5097 120.973Z" fill="#9FB7BD"/>
<path d="M117.153 151.919C115.833 158.962 113.388 165.724 109.979 171.794C109.01 173.52 107.963 175.189 106.844 176.793C106.73 176.956 107.05 177.073 107.134 177.086C107.308 177.119 107.526 177.086 107.643 176.92C111.609 171.226 114.659 164.721 116.605 157.801C117.15 155.868 117.607 153.903 117.978 151.919C118.033 151.628 117.217 151.571 117.153 151.919Z" fill="#9FB7BD"/>
<path d="M104.346 159.35C104.186 159.323 103.933 159.34 103.837 159.516C103.096 160.886 102.132 162.079 100.997 163.036C100.844 163.169 101.035 163.327 101.145 163.365C101.327 163.428 101.556 163.411 101.712 163.281C102.878 162.294 103.873 161.055 104.633 159.647C104.729 159.467 104.444 159.367 104.346 159.35Z" fill="#9FB7BD"/>
<path d="M124.743 32.5442C124.157 32.1365 123.595 31.688 123.079 31.1688C121.865 29.9511 120.932 28.3854 119.613 27.3226C118.353 26.3061 116.82 25.8195 115.298 25.5015C112.106 24.8328 108.841 24.8328 105.613 25.1128C103.988 25.2541 102.369 25.4689 100.751 25.7054C99.2565 25.9255 97.7576 26.0125 96.2802 26.3169C95.618 26.4529 94.9581 26.6186 94.3151 26.8415C91.2479 27.9125 89.2876 30.1984 87.901 33.4357C87.6476 34.0255 87.4133 34.6235 87.2508 35.2514C87.105 35.8222 87.0189 36.4121 86.9567 37.0019C86.6244 40.1278 86.9423 43.3406 87.8819 46.3033C88.5082 48.2821 89.89 49.5488 91.4607 50.5735C93.1628 51.688 95.0873 52.2316 96.8874 53.0824C100.677 54.8736 103.784 58.0728 107.136 60.7638C110.488 63.452 114.427 65.7407 118.506 65.2487C119.567 65.1237 120.607 64.8111 121.671 64.7214C122.718 64.6317 123.768 64.7594 124.817 64.7839C127.019 64.8383 129.259 64.4142 131.217 63.2672C132.675 62.4137 134.086 61.0873 134.889 59.4374C135.749 57.6679 135.814 55.5232 135.886 53.5526C135.912 52.7942 135.941 52.0413 135.967 51.283C135.986 50.7964 136.003 50.3126 136.022 49.8233C136.067 48.5268 136.177 47.0644 136.006 45.7869C135.812 44.3653 135.033 42.8567 134.416 41.6227C133.4 39.5977 132.138 37.695 130.505 36.2816C128.748 34.7594 126.62 33.8543 124.743 32.5442Z" fill="#D5E2E5"/>
<path d="M107.387 93.8325C107.371 93.9141 107.356 93.9929 107.339 94.0717C106.995 95.7026 106.282 97.2845 105.109 98.2984C104.059 99.2008 101.406 98.3718 100.177 98.1408C98.3934 97.8037 96.6411 97.2845 94.9414 96.5887C94.2696 96.3115 93.6002 96.0043 93.0049 95.5558C91.8455 94.686 91.2455 93.3242 90.2749 92.2669C89.321 91.2313 88.4866 90.106 87.9176 88.7197C86.5143 85.3085 87.6285 82.4952 88.8286 79.315C89.9163 76.4365 90.6741 73.3976 91.0757 70.2989C91.3315 68.3419 92.7468 68.1707 94.2313 68.5295C95.9215 68.9372 97.528 69.7118 99.0819 70.5599C100.354 71.2557 101.575 72.2832 102.869 72.8893C104.2 73.5145 105.615 73.8733 106.949 74.5637C107.856 75.0339 109.634 75.6129 110.165 76.6159C110.366 77.0019 110.464 77.502 110.488 78.0402C110.5 78.2603 110.497 78.486 110.488 78.7143C110.445 79.6792 110.239 80.6849 110.079 81.3726C109.699 83.0089 109.063 84.5474 108.532 86.1266C108.157 87.2465 107.779 88.3038 107.7 89.5107C107.602 90.9703 107.652 92.3973 107.387 93.8325Z" fill="#F7926C"/>
<path d="M110.079 81.3726C109.699 83.0089 109.063 84.5474 108.532 86.1266C108.235 86.9991 107.886 87.714 107.796 88.5403C107.289 88.6463 106.77 88.6789 106.268 88.6355C104.87 88.5159 103.528 87.9532 102.252 87.29C100.533 86.3957 98.8427 85.2677 97.6665 83.577C97.602 83.4873 97.5423 83.3922 97.4825 83.2998C96.4306 81.6363 95.9453 79.4319 96.5764 77.5238C97.363 75.1454 100.033 75.1834 101.915 75.4417C103.268 75.6238 104.623 75.8412 105.945 76.2136C107.595 76.6757 109.244 77.4232 110.488 78.7143C110.444 79.6792 110.239 80.6849 110.079 81.3726Z" fill="#E35A5B"/>
<path d="M120.708 54.9606C120.827 58.7578 119.928 62.7861 119.503 66.5589C119.24 68.8802 118.977 71.1335 118.425 73.395C117.894 75.5749 117.091 77.6733 116 79.5706C114.705 81.8212 113.012 83.9332 110.949 85.2922C109.914 85.9718 108.845 86.3985 107.648 86.423C106.402 86.4501 105.178 86.0914 103.997 85.6728C103.581 85.526 103.17 85.3874 102.752 85.2569C101.47 84.8546 100.206 83.8462 99.0939 83.0226C95.9096 80.666 93.6624 76.3251 92.6799 72.199C92.3452 70.7992 92.142 69.3613 91.7642 67.975C91.1068 65.5749 89.9402 63.3977 89.0629 61.0846C88.4222 59.3966 88.0851 57.9207 88.2859 56.0914C88.874 50.704 89.5553 45.053 92.4026 40.6959C92.9763 39.8179 93.6409 38.9998 94.4537 38.4099C95.3956 37.7304 96.5001 37.3879 97.6021 37.1895C99.6485 36.8253 101.743 36.9285 103.806 37.1711C105.443 37.3642 107.093 37.655 108.621 38.359C111.771 39.8105 114.102 42.8547 116.297 45.8066C118.162 48.31 120.595 51.4787 120.708 54.9606Z" fill="#F7926C"/>
<path d="M116.156 55.5232C116.875 55.5504 117.578 55.7135 118.329 56.0994C118.771 56.3278 120.956 57.4911 119.864 58.2141C119.371 58.5376 117.839 57.8907 117.267 57.8227C116.316 57.7086 115.355 57.6977 114.406 57.869C114.028 57.9369 113.299 58.0375 112.974 57.733C112.192 56.9964 113.356 55.8711 113.966 55.7515C114.748 55.5993 115.46 55.4987 116.156 55.5232Z" fill="#342C39"/>
<path d="M102.668 54.7132C101.788 54.6697 100.899 54.7702 100.031 55.0638C99.7154 55.1698 96.9782 56.7028 97.5734 57.2981C97.607 57.3307 97.6523 57.3334 97.6953 57.3362C98.7926 57.3851 99.9258 56.9964 101.037 56.9584C102.261 56.9176 103.478 57.0426 104.659 57.3362C104.937 57.4041 105.219 57.4803 105.508 57.4259C106.321 57.2737 106.584 55.7814 105.797 55.4552C104.807 55.0421 103.744 54.7703 102.668 54.7132Z" fill="#342C39"/>
<path d="M114.898 63.0253C114.984 62.2833 115.223 61.3863 115.948 61.196C116.302 61.1036 116.663 61.2068 116.906 61.5195C116.971 61.6037 117.021 61.7016 117.064 61.7994C117.105 61.8701 117.146 61.9381 117.179 62.0087C117.411 62.4763 117.468 63.0443 117.354 63.5662C117.334 63.9957 117.22 64.4061 116.906 64.716C116.546 65.0694 115.934 65.034 115.52 64.7921C114.956 64.4632 114.822 63.694 114.898 63.0253Z" fill="#1E1821"/>
<path d="M101.286 62.3756C101.331 61.6281 101.516 60.7176 102.23 60.4729C102.577 60.3533 102.943 60.4322 103.203 60.7257C103.275 60.8046 103.328 60.897 103.375 60.9921C103.423 61.0573 103.469 61.128 103.505 61.1933C103.763 61.6418 103.851 62.2071 103.768 62.7344C103.773 63.1666 103.679 63.5852 103.383 63.9141C103.043 64.2946 102.431 64.3028 102.008 64.0935C101.425 63.8027 101.245 63.047 101.286 62.3756Z" fill="#1E1821"/>
<path d="M91.9769 66.5453C91.7618 68.1925 91.5467 69.8396 91.3315 71.4868C88.2117 72.7236 86.7965 53.8706 86.7558 51.6336C86.7128 49.3721 86.8109 45.9228 88.0229 44.0011C89.046 42.3756 90.784 40.8399 92.2399 39.7363C95.7207 37.0997 99.9258 35.8331 104.066 35.5232C104.917 35.4606 105.778 35.4362 106.608 35.6482C107.571 35.8956 108.384 36.2381 109.352 36.306C110.37 36.3794 111.398 36.6213 112.304 37.1812C113.789 38.1 114.38 39.758 114.927 41.4677C115.527 43.3432 116.366 44.8464 114.48 46.2217C113.748 46.7572 112.873 46.9828 112.008 47.116C109.412 47.5237 106.761 47.2031 104.152 47.5183C101.542 47.8336 98.807 48.9589 97.3774 51.4623C96.7128 52.6257 96.3901 53.9902 95.9909 55.303C95.4721 57.0182 94.817 58.6817 94.0353 60.2609C93.1651 62.0222 92.4025 63.259 92.142 65.2704C92.0869 65.6944 92.032 66.1185 91.9769 66.5453Z" fill="#342C39"/>
<path d="M91.6973 58.3012C90.698 58.323 89.7489 58.8611 89.2397 60.0163C88.7449 61.1416 88.7641 62.4762 88.9577 63.7157C89.5171 67.2683 91.6161 70.3099 94.8769 70.9079C95.2379 70.9731 95.6179 71.003 95.9646 70.8671C98.1448 69.9973 96.3399 64.7676 95.9264 63.0552C95.5917 61.6744 95.1088 60.2664 94.1574 59.3259C93.4689 58.6491 92.5651 58.2795 91.6973 58.3012Z" fill="#F7926C"/>
<path d="M112.446 69.5189C112.444 68.8801 112.302 68.2196 112.178 67.6026C111.912 66.3142 111.542 65.0584 111.289 63.77C111.018 62.3865 110.858 60.9812 110.801 59.5678C110.785 59.1709 109.72 58.9616 109.742 59.4672C109.794 60.7176 109.923 61.9598 110.141 63.1856C110.351 64.387 110.672 65.5558 110.949 66.7355C111.081 67.2927 111.198 67.8554 111.284 68.4235C111.327 68.7143 111.411 69.0731 111.384 69.3721C111.351 69.701 111.124 69.8233 110.892 69.9728C110.031 70.53 109.08 70.8508 108.092 70.9269C107.906 70.9432 107.695 71.0655 107.817 71.302C107.937 71.5357 108.31 71.6173 108.523 71.601C109.589 71.5167 110.636 71.1987 111.583 70.6279C111.999 70.3751 112.448 70.1223 112.446 69.5189Z" fill="#E35A5B"/>
<path d="M110.71 76.2924C110.841 76.0016 110.923 75.6863 110.822 75.4661C110.679 75.1508 109.993 74.966 109.668 74.8817C108.274 74.5175 106.82 74.3544 105.515 73.7238C104.769 73.3677 104.069 72.8377 103.261 72.6528C101.731 72.3022 102.572 74.6371 102.886 75.3411C103.275 76.2109 103.72 77.0752 104.372 77.7629C106.199 79.6737 108.967 78.9154 110.328 76.9583C110.433 76.8089 110.593 76.5588 110.71 76.2924Z" fill="white"/>
<path d="M122.699 41.9653C122.013 39.682 120.786 37.7141 118.675 36.3958C116.483 35.0286 114.021 34.3219 111.556 33.944C109.012 33.5526 106.423 33.4602 103.861 33.4657C101.226 33.4718 98.5845 33.6477 95.9811 34.1289C93.8391 34.5257 91.7234 35.1346 89.6938 36.0098C88.9192 36.3442 87.7693 36.6323 87.3533 37.4749C86.88 38.4317 86.837 40.1115 86.6792 41.1906C85.9046 46.442 85.8712 51.8348 86.5837 57.0998C86.8419 59.0052 87.8077 57.6951 88.6229 57.1053C89.8254 56.2301 91.1043 55.4744 92.3977 54.7922C94.9389 53.4549 97.6212 52.4573 100.37 51.8403C105.068 50.7857 109.938 50.8427 114.616 52.0034C117.296 52.6693 119.904 53.6913 122.376 55.0395C122.546 55.1319 122.794 55.1483 122.959 55.0395C122.99 55.0206 123.012 54.9988 123.031 54.977C123.112 54.9362 123.172 54.871 123.177 54.784C123.457 50.7367 123.875 45.8875 122.699 41.9653Z" fill="#D5E2E5"/>
<path d="M123.505 41.7424C123.496 41.408 122.668 41.4135 122.678 41.7424C122.797 45.9772 122.35 50.2229 121.341 54.3001C121.25 54.6671 122.066 54.7242 122.14 54.4306C123.158 50.3045 123.624 46.0261 123.505 41.7424Z" fill="#9FB7BD"/>
<path d="M96.0196 34.3327C95.9551 34.1506 95.6443 34.1425 95.5104 34.1641C92.4958 34.6506 89.572 35.7759 86.9208 37.4829C86.7725 37.5781 86.775 37.7248 86.9208 37.82C87.0738 37.926 87.3512 37.9233 87.5066 37.82C90.0478 36.1836 92.8376 35.0964 95.7303 34.6262C95.8522 34.6078 96.0889 34.5202 96.0196 34.3327Z" fill="#9FB7BD"/>
<path d="M124.425 33.1339C124.224 32.9029 123.827 32.9627 123.569 32.979C123.237 32.9974 122.909 33.0442 122.584 33.1231C121.941 33.2807 121.322 33.5444 120.741 33.8924C120.172 34.2321 119.639 34.6507 119.147 35.1128C118.719 35.5205 118.283 35.9772 118.073 36.5724C117.11 36.0478 116.094 35.6809 115.051 35.3792C112.307 34.5773 109.496 34.1044 106.663 33.9576C105.704 33.906 104.743 33.9005 103.782 33.9305C103.925 31.8375 104.851 29.8886 106.175 28.4453C107.681 26.8035 109.629 25.8277 111.63 25.2488C111.769 25.2106 111.901 25.0694 111.779 24.9226C111.65 24.7676 111.372 24.7921 111.212 24.8355C108.03 25.7516 104.867 27.7766 103.519 31.3482C103.206 32.1772 103.01 33.0606 102.952 33.9603C102.565 33.9786 102.178 34.0037 101.791 34.0337C101.666 34.0439 101.434 34.1478 101.501 34.33C101.571 34.5175 101.877 34.5067 102.011 34.4957C102.329 34.4712 102.644 34.4523 102.96 34.4331C103.082 34.656 103.667 34.6506 103.753 34.4032C105.898 34.3406 108.045 34.4711 110.17 34.8027C111.504 35.0093 112.831 35.292 114.138 35.6508C115.441 36.0096 116.73 36.42 117.913 37.1485C119.163 37.9177 120.277 38.9343 121.384 39.94C121.532 40.0731 121.774 40.0894 121.951 40.0242C122.066 39.9834 122.252 39.8366 122.099 39.698C121.074 38.7657 120.041 37.8307 118.905 37.0723C118.862 37.0423 118.817 37.0179 118.774 36.9908C118.786 36.9724 118.798 36.9526 118.802 36.931C118.939 36.3466 119.29 35.9199 119.682 35.5285C120.091 35.1235 120.529 34.7538 120.995 34.4412C121.442 34.1422 121.913 33.8894 122.407 33.7127C122.785 33.5768 123.268 33.4219 123.694 33.4301C123.811 33.5279 124.036 33.5253 124.141 33.5143C124.265 33.4979 124.404 33.4517 124.466 33.3185C124.499 33.2478 124.468 33.1857 124.425 33.1339Z" fill="#9FB7BD"/>
<path d="M96.3257 26.0615C94.3749 28.1572 93.849 31.2395 93.5621 34.1452C93.5311 34.4605 94.3558 34.4904 94.3892 34.1452C94.6642 31.3428 95.1567 28.3257 97.0405 26.3034C97.313 26.0098 96.5217 25.8522 96.3257 26.0615Z" fill="#9FB7BD"/>
<path d="M134.98 49.6766C132.044 47.2574 128.862 45.246 125.501 43.6994C125.324 43.6179 125.09 43.5879 124.918 43.6994C124.784 43.7865 124.748 43.9603 124.918 44.0392C128.229 45.5613 131.372 47.5347 134.265 49.9185C134.42 50.0463 134.65 50.0708 134.831 50.0055C134.939 49.9648 135.14 49.8098 134.98 49.6766Z" fill="#9FB7BD"/>
<path d="M131.425 61.5276C129.78 60.6442 128.14 59.7119 126.956 58.0892C125.84 56.5589 125.152 54.6915 124.48 52.8758C124.372 52.5849 123.557 52.6638 123.684 53.0036C124.377 54.8763 125.092 56.7763 126.254 58.3474C127.473 59.9973 129.156 60.9622 130.841 61.8674C131.011 61.9571 131.257 61.9761 131.425 61.8674C131.566 61.775 131.587 61.6146 131.425 61.5276Z" fill="#9FB7BD"/>
<path d="M88.0085 83.3922C88.6874 84.4903 89.603 85.3655 90.5139 86.2163C92.6583 88.225 94.9174 90.231 97.5973 91.06C98.4627 91.3291 99.4643 91.5493 99.9209 92.4245C100.146 92.854 100.193 93.3677 100.232 93.8651C100.411 96.219 100.483 98.5838 100.445 100.949C100.443 101.057 100.437 101.177 100.375 101.256C100.308 101.337 100.205 101.354 100.11 101.364C98.8045 101.5 97.4944 101.234 96.2226 100.878C93.1865 100.019 90.2174 98.5621 87.932 96.132C85.6489 93.6993 84.1236 90.1984 84.3364 86.6512C84.3986 85.5857 84.6137 84.5392 84.8624 83.5063C85.1158 82.4517 85.8019 79.7499 87.0235 79.7091C87.076 81.079 87.2937 82.2451 88.0085 83.3922Z" fill="#D5E2E5"/>
<path d="M111.159 93.1177C110.865 93.6749 110.54 94.2158 110.191 94.7295C109.716 95.4335 106.06 100.701 105.262 98.0864C105.068 97.4558 105.381 96.5398 105.427 95.8929C105.529 94.4387 105.63 92.9845 105.709 91.533C105.766 90.4213 106.445 89.5705 107.229 88.9807C108.207 88.2495 109.046 87.5047 109.933 86.5942C110.296 86.2191 110.698 85.8276 111.188 85.7814C111.824 85.7216 112.403 86.306 112.611 86.9937C112.821 87.6787 112.737 88.4343 112.594 89.1411C112.312 90.5463 111.81 91.8837 111.159 93.1177Z" fill="#D5E2E5"/>
<path d="M133.55 201.778C133.373 201.721 133.232 201.617 133.208 201.46C133.027 200.239 132.845 199.019 132.658 197.801C131.152 187.893 129.529 178.013 127.791 168.154C126.041 158.26 124.179 148.394 122.195 138.557C120.21 128.712 118.111 118.899 115.89 109.122C115.417 107.032 115.073 104.773 114.227 102.827C113.827 101.908 113.273 101.068 112.496 100.527C111.738 99.9972 110.865 99.7798 109.99 99.6738C109.046 99.5569 108.09 99.5705 107.138 99.527C106.072 99.4808 105.013 99.3965 103.952 99.2851C101.736 99.0459 99.5338 98.649 97.3559 98.1054C93.7102 97.1894 89.8039 96.007 87.2173 92.7317C85.4386 90.481 84.4035 87.6759 83.5835 84.8192C83.8656 84.6235 84.1262 84.3924 84.3102 84.0826C84.3748 83.9739 84.4274 83.8597 84.4681 83.7428C84.5636 84.088 84.6593 84.4359 84.7597 84.7784C85.8833 88.6327 87.4779 92.5115 90.655 94.6778C92.3189 95.8113 94.186 96.4664 96.0531 97.0073C98.2262 97.6433 100.44 98.1136 102.668 98.4289C104.776 98.7279 106.878 98.804 108.998 98.91C110.705 98.9942 112.515 99.2524 113.894 100.497C115.243 101.718 115.809 103.675 116.24 105.499C116.804 107.885 117.332 110.28 117.867 112.675C120.055 122.449 122.125 132.253 124.078 142.09C126.027 151.897 127.853 161.731 129.57 171.593C130.339 176.029 131.088 180.47 131.807 184.917C132.453 190.53 133.046 196.146 133.55 201.778Z" fill="#9FB7BD"/>
<path d="M112.197 87.4368C111.661 91.5983 109.617 95.4281 106.627 97.9016C106.469 98.0321 106.668 98.1897 106.775 98.2305C106.954 98.2985 107.186 98.2713 107.339 98.1435C110.399 95.6129 112.477 91.6907 113.024 87.4368C113.062 87.1297 112.24 87.0889 112.197 87.4368Z" fill="#9FB7BD"/>
<path d="M294.181 214.893V250H0V214.893H294.181Z" fill="#D5E2E5"/>
<path d="M118.907 213.523H56.2944C56.1605 213.523 55.845 213.637 55.845 214.159C55.845 214.681 56.1677 214.798 56.2944 214.798H118.907C119.041 214.798 119.359 214.683 119.359 214.159C119.359 213.64 119.034 213.523 118.907 213.523Z" fill="#9FB7BD"/>
<path d="M262.754 222.234C262.754 216.252 240.856 211.403 213.842 211.403C186.83 211.403 164.932 216.252 164.932 222.234L162.331 226.858C162.331 233.159 185.393 238.269 213.842 238.269C242.29 238.269 265.352 233.159 265.352 226.858L262.754 222.234Z" fill="#64858E"/>
<path d="M262.754 222.234C262.754 228.22 240.856 233.069 213.842 233.069C186.83 233.069 164.932 228.22 164.932 222.234C164.932 216.252 186.83 211.403 213.842 211.403C240.856 211.403 262.754 216.252 262.754 222.234Z" fill="#9FB7BD"/>
<path d="M163.894 151.672C165.582 150.631 167.045 150.343 168.891 150.796C171.609 151.471 174.152 152.683 175.659 155.477C176.531 157.092 177.024 158.932 177.377 160.783C177.698 162.465 177.913 164.189 177.82 165.907C177.693 168.217 177.038 170.144 175.537 171.699C173.849 173.449 171.936 174.24 169.701 174.528C168.9 174.634 168.066 174.558 167.337 174.172C166.608 173.784 165.996 173.055 165.809 172.164C165.398 172.389 164.946 172.552 164.49 172.522C164.033 172.495 163.569 172.245 163.337 171.799C163.17 171.484 163.124 171.09 162.909 170.818C162.517 170.318 161.81 170.465 161.248 170.272C160.38 169.973 159.945 168.905 159.608 167.951C155.914 167.154 155.917 160.932 157.614 158.152C158.169 157.247 158.986 156.439 159.954 156.385C160.684 154.45 162.166 152.74 163.894 151.672Z" fill="#F7926C"/>
<path d="M183.093 175.069L178.919 180.106L155.513 155.023C154.289 153.713 154.231 151.522 155.384 150.133C156.538 148.741 158.463 148.676 159.687 149.986L183.093 175.069Z" fill="#221D28"/>
<path d="M263.139 196.331C261.262 214.977 237.392 227.189 209.821 223.604C182.25 220.022 161.422 201.995 163.297 183.351C163.342 182.887 163.404 182.427 163.478 181.973C163.557 181.473 163.653 180.979 163.768 180.489C166.541 174.686 188.465 172.696 214.597 176.094C240.731 179.492 261.697 187.056 263.246 193.425C263.261 193.928 263.255 194.436 263.234 194.942C263.215 195.404 263.184 195.866 263.139 196.331Z" fill="#342C39"/>
<path d="M216.641 210.65C221.011 210.728 225.396 210.522 229.725 209.821C241.26 207.953 251.064 202.414 257.459 191.033C259.605 187.217 260.916 182.599 260.241 178.135C257.538 180.745 252.61 178.837 251.867 174.895C251.389 172.362 252.426 169.766 253.763 167.671C255.362 165.162 257.538 162.971 260.182 162.221C262.728 161.5 264.867 163.039 267.258 161.038C268.628 159.891 269.577 158.203 270.301 156.453C270.672 155.55 270.994 154.575 271.138 153.591C271.274 152.656 271.253 151.715 270.963 150.826C270.872 150.549 270.734 150.256 270.49 150.152C270.132 149.997 269.766 150.313 269.429 150.516C268.162 151.288 266.503 150.476 265.683 149.136C264.86 147.796 264.681 146.089 264.597 144.458C264.516 142.827 264.494 141.147 263.925 139.647C263.287 137.975 261.738 136.257 260.239 135.567C258.264 134.656 256.479 134.879 254.824 132.976C253.39 131.326 252.634 128.943 252.811 126.632C253.024 123.868 254.458 121.457 255.534 118.967C256.67 116.347 257.447 113.381 256.959 110.516C256.469 107.652 254.418 104.988 251.853 104.817C253.364 107.546 252.529 111.601 250.11 113.286C249.639 113.612 249.068 113.86 248.544 113.667C248.212 113.544 247.949 113.259 247.724 112.957C245.642 110.117 246.612 105.781 245.491 102.31C244.549 99.3912 241.989 97.2411 239.256 97.078C237.311 96.9639 235.336 97.763 233.435 97.2683C227.92 95.8304 227.911 89.1112 231.059 84.8791C233.017 82.2479 235.955 80.7094 238.958 80.2175C236.892 77.6651 233.811 76.3931 230.767 76.1838C227.722 75.9745 224.69 76.7355 221.769 77.7385C217.755 79.1166 213.837 80.9731 210.356 83.6341C207.349 85.9364 204.669 88.8557 202.723 92.3512C200.712 95.9581 199.768 100.041 198.305 103.968C197.81 105.295 197.256 106.613 196.428 107.711C195.931 108.369 195.264 108.97 194.502 108.948C193.514 108.918 192.764 107.806 192.639 106.689C192.517 105.575 192.859 104.469 193.196 103.411C192.013 103.457 191.076 104.556 190.445 105.694C189.041 108.231 188.508 111.31 188.654 114.3C188.8 117.29 189.591 120.204 190.672 122.933C192.02 126.344 192.556 128.839 192.575 132.52C192.623 140.563 184.31 147.181 181.707 154.463C178.625 163.071 178.403 173.33 180.942 182.172C180.065 181.767 179.163 181.43 178.245 181.163C178.035 181.101 177.796 181.044 177.609 181.172C177.37 181.335 177.332 181.707 177.342 182.022C177.387 183.351 177.844 184.618 178.362 185.811C181.929 194.036 188.762 198.918 195.09 204.069C201.492 209.28 208.946 210.508 216.641 210.65Z" fill="#F57832"/>
<path d="M214.109 214.031C216.954 214.083 219.809 213.947 222.625 213.49C227.769 212.658 232.811 210.563 236.725 206.578C237.865 205.415 238.826 203.835 240.067 202.857C241.47 201.75 243.282 201.21 244.731 200.09C247.466 197.972 249.792 195.164 251.444 191.905C252.445 189.935 253.223 187.676 252.938 185.42C251.795 186.888 249.959 187.616 248.262 187.271C246.565 186.928 245.063 185.529 244.435 183.702C243.617 181.324 244.279 178.589 245.398 176.371C246.517 174.153 248.066 172.251 249.216 170.052C252.646 163.487 251.877 154.431 247.399 148.739C245.788 146.692 243.194 144.558 242.775 141.666C242.374 138.913 243.846 136.325 244.494 133.778C245.529 129.717 243.244 124.95 239.68 123.737C240.894 124.811 241.367 126.711 241.188 128.445C241.009 130.179 240.268 131.775 239.419 133.226C238.408 134.958 237.012 136.689 235.19 136.839C231.991 137.097 231.671 133.49 232.02 131.049C232.422 128.201 232.137 124.588 229.995 122.639C227.535 120.397 223.77 121.389 221.011 119.649C219.161 118.483 218.011 116.189 217.624 113.827C217.15 110.943 217.726 107.855 219.189 105.439C214.602 105.588 210.26 109.255 208.814 114.21C207.566 118.481 208.37 123.009 208.238 127.401C208.154 130.242 207.377 135.197 204.817 136.532C203.105 137.426 201.002 136.496 199.735 134.914C198.468 133.33 197.848 131.231 197.258 129.195C196.534 132.454 197.284 135.896 197.045 139.244C196.816 142.444 195.649 145.545 193.775 147.945C191.941 150.294 189.503 151.933 187.595 154.199C183.861 158.635 182.515 165.482 184.234 171.302C184.994 173.873 186.299 176.252 186.679 178.929C187.129 182.098 186.232 185.338 186.471 188.538C186.658 191.019 187.547 193.425 188.977 195.311C190.507 197.331 192.572 198.701 194.404 200.361C196.928 202.653 199.01 205.501 201.353 208.032C205.113 212.093 208.955 213.936 214.109 214.031Z" fill="#F8C93D"/>
<path d="M208.661 216.067C209.443 216.29 210.237 216.469 211.028 216.63C217.212 217.888 223.873 218.233 229.491 215.039C233.347 212.846 236.347 209.138 238.542 204.98C239.632 202.914 240.361 200.636 241.532 198.638C242.572 196.866 244.148 195.156 243.517 192.794C243.053 191.049 241.501 190.046 240.39 188.731C239.28 187.418 238.726 184.942 240.091 183.987C237.134 184.681 232.343 184.066 234.074 179.168C235.085 176.312 237.141 174.129 238.64 171.566C241.269 167.062 242.018 160.829 239.476 156.263C238.606 154.7 237.263 153.322 235.642 153.15C235.114 155.178 234.262 157.173 232.84 158.538C231.418 159.902 229.338 160.519 227.636 159.666C225.671 158.679 224.7 156.015 224.793 153.574C224.884 151.133 225.821 148.853 226.741 146.643C224.879 148.328 221.893 149.255 220.301 147.249C219.187 145.844 219.331 143.656 219.876 141.867C220.741 139.024 222.462 136.526 224.686 134.893C221.355 132.914 217.052 134.384 214.382 137.391C211.709 140.397 210.378 144.605 209.491 148.755C208.604 152.906 208.068 157.189 206.62 161.131C205.682 163.68 204.258 166.17 202.065 167.358C200.736 168.078 198.501 168.339 197.234 167.263C196.672 166.787 196.278 164.613 195.929 164.471C193.744 163.596 192.759 170.916 192.725 172.221C192.666 174.463 192.682 177.045 193.206 179.231C193.82 181.797 194.662 183.512 194.243 186.312C193.861 188.872 193.019 191.389 193.18 193.982C193.28 195.583 193.763 197.121 194.313 198.597C195.843 202.718 197.939 206.567 200.502 209.959C201.905 211.818 203.478 213.566 205.386 214.702C206.421 215.319 207.528 215.741 208.661 216.067Z" fill="#F9E6A3"/>
<path d="M183.461 130.468C182.998 130.073 182.426 129.965 181.884 130.076C181.305 130.068 180.703 130.288 180.64 130.775C180.64 130.783 180.639 130.788 180.639 130.794C180.469 130.981 180.326 131.199 180.22 131.438C179.752 132.506 179.353 134.887 180.091 135.906C180.49 136.455 181.432 136.507 181.992 136.295C182.451 136.118 182.711 135.776 182.903 135.33C183.192 135.069 183.431 134.727 183.579 134.346C183.99 133.292 184.425 131.283 183.461 130.468Z" fill="white"/>
<path d="M255.13 87.6896C255.154 87.5021 255.192 87.3173 255.257 87.1379C255.589 86.2273 253.892 86.1702 253.483 86.3496C252.34 86.8579 252.218 89.2553 252.297 90.4132C252.319 90.7475 252.383 91.1199 252.627 91.3102C252.814 91.457 253.072 91.4542 253.285 91.3591C253.497 91.2667 253.674 91.0927 253.842 90.9133C254.279 90.4404 254.671 89.8777 254.908 89.2417C255.099 88.7307 255.068 88.2006 255.13 87.6896Z" fill="white"/>
<path d="M271.035 136.839C271.014 136.57 270.951 136.341 270.858 136.154C270.86 136.146 270.86 136.14 270.864 136.135C270.909 135.934 270.624 135.716 270.517 135.648C270.378 135.567 270.208 135.512 270.039 135.483C269.838 135.423 269.618 135.398 269.379 135.404C267.146 135.453 267.06 138.755 267.306 140.612C267.421 141.473 269.4 141.598 269.625 140.794C269.641 140.742 269.656 140.69 269.673 140.636C270.029 140.563 270.338 140.4 270.438 140.163C270.866 139.144 271.131 137.978 271.035 136.839Z" fill="white"/>
<path d="M263.234 194.942C263.218 195.404 263.184 195.866 263.136 196.331C261.262 214.977 237.392 227.187 209.821 223.604C182.25 220.019 161.422 201.995 163.297 183.351C163.342 182.887 163.404 182.43 163.478 181.973C163.911 188.448 185.321 196.355 212.209 199.851C239.096 203.346 261.528 201.139 263.234 194.942Z" fill="#DC9065"/>
<path d="M263.234 194.942C263.218 195.404 263.184 195.866 263.136 196.331C262.89 198.79 262.259 201.139 261.288 203.351C254.901 217.923 233.753 226.717 209.821 223.604C194.019 221.549 180.433 214.751 172.063 205.811C165.833 199.155 162.496 191.307 163.297 183.351C163.342 182.887 163.404 182.43 163.478 181.973C163.911 188.448 185.321 196.355 212.209 199.851C239.096 203.346 261.528 201.139 263.234 194.942Z" fill="#221D28"/>
<path d="M117.27 204.528L115.584 207.633L78.9409 184.501L80.6167 180.894L117.27 204.528Z" fill="#342C39"/>
<path d="M112.144 205.765L115.584 207.632L117.27 204.528L113.83 202.612L112.144 205.765Z" fill="#221D28"/>
<path d="M138.678 210.941C139.018 211.095 139.147 211.452 138.943 211.707C138.766 211.93 138.384 211.976 138.08 211.838L122.792 204.248C122.453 204.064 122.288 203.667 122.472 203.39C122.551 203.27 122.68 203.191 122.823 203.164C122.979 203.131 123.158 203.156 123.318 203.243L138.678 210.941ZM136.983 213.702C137.325 213.852 137.454 214.208 137.248 214.471C137.071 214.702 136.689 214.754 136.385 214.621L121.102 207.241C120.763 207.062 120.6 206.662 120.782 206.379C120.863 206.257 120.99 206.176 121.133 206.143C121.289 206.11 121.468 206.132 121.628 206.216L136.983 213.702ZM135.291 216.529C135.63 216.673 135.761 217.032 135.556 217.301C135.379 217.537 134.996 217.6 134.693 217.469L119.414 210.299C119.075 210.125 118.912 209.726 119.094 209.435C119.175 209.31 119.302 209.225 119.445 209.19C119.601 209.152 119.78 209.168 119.94 209.253L135.291 216.529ZM133.6 219.421C133.94 219.562 134.069 219.921 133.866 220.198C133.689 220.44 133.306 220.508 133.003 220.383L117.729 213.422C117.389 213.256 117.225 212.854 117.409 212.558C117.488 212.427 117.617 212.34 117.76 212.302C117.915 212.259 118.092 212.275 118.252 212.354L133.6 219.421ZM116.73 201.642L112.866 208.81C111.76 210.921 112.723 213.61 115.011 214.759L132.869 222.764C133.686 223.091 134.667 222.789 135.063 222.101L141.53 211.394C141.927 210.772 141.587 209.962 140.77 209.584L122.888 200.435C120.595 199.138 117.837 199.655 116.73 201.642Z" fill="#342C39"/>
<path d="M74.2768 174.216C75.1756 175.004 76.1128 175.73 77.1192 176.331C79.3736 177.679 81.6901 177.385 84.1309 177.896C87.1264 178.527 89.5791 181.046 91.2693 183.928C91.8024 184.838 92.2805 185.795 92.9045 186.627C93.5643 187.507 94.6377 188.527 94.523 189.812C94.1214 189.837 93.2249 189.021 92.7157 188.837C91.9316 188.554 91.1139 188.399 90.2939 188.361C89.8397 188.342 89.309 188.51 89.0771 188.994C88.7854 189.598 89.1799 190.022 89.5146 190.462C90.3466 191.56 91.4223 192.384 92.5315 193.08C93.8726 193.92 95.2928 194.599 96.5957 195.515C96.9088 195.735 97.2316 195.991 97.3822 196.369C97.9225 197.733 95.6633 198.203 94.9485 198.429C91.5586 199.494 88.1257 200.484 84.6138 200.875C83.1125 201.044 81.5083 201.212 80.0596 200.622C78.7233 200.082 77.6308 198.894 76.7463 197.668C74.9031 195.121 73.7771 192.112 71.5299 189.935C69.3592 187.831 66.7702 186.363 64.1836 185.045C60.8128 183.324 57.3128 181.778 54.3891 179.209C50.631 175.912 48.2619 171.112 49.9067 165.817C50.5689 163.683 51.867 161.748 53.7198 160.818C55.8905 159.728 58.4627 160.16 60.6023 161.329C62.7395 162.501 64.5301 164.341 66.2872 166.151C67.8507 167.766 69.4142 169.378 70.9801 170.989C72.0487 172.093 73.1293 173.207 74.2768 174.216Z" fill="#F7926C"/>
<path d="M67.9153 164.221C68.3433 164.678 68.7258 165.173 69.0007 165.762C69.7275 167.328 68.6876 169.274 67.3655 170.212C66.0411 171.15 64.4466 171.509 63.1437 172.479C61.64 173.599 60.667 175.42 59.7944 177.206C58.9219 178.994 58.0684 180.859 56.6986 182.185C53.5955 185.192 49.6151 183.091 49.0843 178.6C48.9386 177.372 49.0933 176.061 48.6278 174.942C48.2692 174.085 47.5926 173.468 46.9902 172.813C43.4832 169.013 40.6861 160.266 44.7167 155.781C46.12 154.221 47.9274 153.15 49.8255 152.618C52.5317 151.856 55.4029 152.123 58.0947 152.944C59.302 153.311 60.5044 153.8 61.5013 154.656C63.2871 156.195 63.8585 158.513 64.8626 160.685C65.5726 162.226 66.8802 163.115 67.9153 164.221Z" fill="#D5E2E5"/>
<path d="M63.7628 159.475C62.5986 157.401 60.7219 156.015 58.678 155.295C56.3017 154.458 53.7604 154.558 51.3459 155.137C49.8613 155.491 48.4174 156.015 46.9926 156.608C46.8611 156.662 46.7152 156.779 46.8443 156.937C46.9614 157.078 47.2602 157.083 47.4108 157.021C51.6183 155.273 56.5454 153.998 60.5927 156.929C61.5418 157.616 62.3595 158.524 62.9667 159.603C63.1196 159.875 63.923 159.761 63.7628 159.475Z" fill="#9FB7BD"/>
<path d="M95.104 197.649C94.1406 197.502 93.1676 197.393 92.2329 197.083C91.4248 196.82 90.6526 196.431 89.9259 195.955C88.4461 194.988 87.1599 193.651 86.1032 192.137C85.9885 191.968 85.7709 191.938 85.594 191.968C85.5151 191.982 85.19 192.098 85.3048 192.264C86.4284 193.871 87.7719 195.268 89.3402 196.293C90.1195 196.804 90.9539 197.214 91.8169 197.499C92.8162 197.828 93.8537 197.956 94.884 198.111C95.0226 198.133 95.3239 198.127 95.3908 197.942C95.4602 197.755 95.221 197.665 95.104 197.649Z" fill="#E35A5B"/>
<path d="M88.8335 199.214C87.8318 199.068 86.9233 198.347 86.1105 197.709C85.269 197.045 84.4776 196.301 83.7366 195.496C83.5453 195.287 82.7493 195.442 83.0218 195.738C83.8323 196.619 84.7048 197.423 85.6348 198.133C86.5432 198.828 87.5066 199.516 88.6135 199.676C88.7546 199.695 89.0558 199.693 89.1227 199.508C89.1896 199.32 88.9529 199.231 88.8335 199.214Z" fill="#E35A5B"/>
<path d="M83.7244 200.313C83.1435 200.209 82.6319 199.812 82.1681 199.424C81.635 198.973 81.0445 198.535 80.6046 197.967C80.4302 197.739 79.634 197.877 79.8898 198.206C80.1289 198.516 80.4134 198.769 80.7003 199.016C80.9967 199.272 81.2907 199.532 81.5919 199.777C82.1729 200.253 82.7897 200.647 83.5045 200.775C83.648 200.802 83.942 200.788 84.0137 200.609C84.0903 200.419 83.8367 200.334 83.7244 200.313Z" fill="#E35A5B"/>
<path d="M89.2302 188.744C88.7807 187.54 88.109 186.477 87.442 185.423C87.3344 185.251 87.1025 185.227 86.9328 185.254C86.8467 185.27 86.5359 185.379 86.6435 185.55C87.3128 186.605 87.9823 187.67 88.4341 188.872C88.5417 189.16 89.3569 189.081 89.2302 188.744Z" fill="#E35A5B"/>
<path d="M66.4045 162.729C60.5356 162.881 54.2745 164.882 50.734 170.593C49.859 172.006 49.2231 173.588 48.8789 175.27C48.8215 175.559 49.6343 175.618 49.706 175.27C50.2989 172.376 51.8313 169.823 53.8035 167.904C55.9599 165.8 58.6278 164.507 61.389 163.838C63.0385 163.438 64.7216 163.254 66.4045 163.207C66.5265 163.205 66.8181 163.167 66.8181 162.968C66.8181 162.775 66.5193 162.726 66.4045 162.729Z" fill="#9FB7BD"/>
<path d="M60.024 166.586C60.1698 166.279 59.3618 166.176 59.2279 166.461C58.5848 167.815 58.1521 169.291 57.9633 170.815C57.7625 172.463 57.8391 174.129 57.9848 175.779C58.0159 176.121 58.8406 176.097 58.8119 175.779C58.6685 174.172 58.5943 172.547 58.776 170.943C58.9505 169.413 59.3809 167.942 60.024 166.586Z" fill="#9FB7BD"/>
<path d="M172.333 170.595C174.062 170.196 174.525 168.013 174.628 166.292C174.7 165.039 174.614 163.786 174.623 162.533C174.632 161.267 174.845 160.13 175.144 158.932C175.157 158.883 175.168 158.834 175.182 158.785C175.431 157.806 174.979 156.608 174.372 155.904C174.011 155.485 173.561 155.178 173.093 154.933C171.981 154.36 170.726 154.137 169.514 154.303C169.024 154.371 168.606 154.488 168.493 155.058C168.369 155.681 168.295 156.322 168.34 156.958C168.441 158.364 168.988 159.668 169.476 160.943C169.536 161.101 169.593 161.259 169.65 161.416C169.471 161.267 169.275 161.139 169.06 161.046C168.68 160.886 168.276 160.854 167.888 160.927C167.642 159.962 167.281 158.986 166.382 158.625C166.1 158.51 165.813 158.481 165.531 158.516C165.225 157.497 164.726 156.51 163.781 156.143C163.059 155.86 162.301 156.045 161.658 156.461C160.791 155.743 159.507 156.004 158.708 156.717C158.061 157.293 157.63 158.13 157.331 159C156.853 160.394 156.681 161.922 156.839 163.406C156.903 164.007 157.021 164.607 157.257 165.151C157.628 166.007 158.292 166.681 159 167.165C160.499 168.19 161.9 169.388 163.387 170.432C163.767 170.699 164.149 170.954 164.541 171.193C164.886 171.403 165.381 171.552 165.679 171.824C165.928 172.049 166.028 172.463 166.306 172.718C166.566 172.957 166.882 173.126 167.193 173.264C167.728 173.501 168.28 173.694 168.842 173.838C169.375 173.971 169.975 174.053 170.434 173.713C170.609 173.588 170.752 173.398 170.795 173.169C170.826 173.004 170.802 172.832 170.764 172.669C170.652 172.199 170.418 171.78 170.246 171.335C170.069 170.892 169.949 170.383 170.076 169.918C170.09 169.872 170.112 169.823 170.152 169.821C170.183 169.815 170.21 169.84 170.231 169.864C170.85 170.514 171.473 170.796 172.333 170.595Z" fill="#F7926C"/>
<path d="M160.798 156.619C160.8 156.621 160.806 156.621 160.808 156.624C160.806 156.622 160.8 156.622 160.798 156.622C160.798 156.619 160.798 156.619 160.798 156.619Z" fill="#F7926C"/>
<path d="M160.798 156.619C160.8 156.621 160.806 156.621 160.808 156.624C160.806 156.622 160.8 156.622 160.798 156.622C160.798 156.619 160.798 156.619 160.798 156.619Z" fill="#E35A5B"/>
<path d="M174.37 158.679C174.066 159.614 173.885 160.584 173.825 161.579C173.765 162.598 173.811 163.621 173.825 164.64C173.841 165.665 173.825 166.703 173.631 167.711C173.478 168.508 173.177 169.353 172.589 169.859C172.14 170.247 171.485 170.321 171.083 169.804C170.55 169.117 170.775 167.95 170.87 167.138C170.99 166.127 171.145 165.11 171.093 164.091C171.045 163.145 170.791 162.237 170.478 161.37C169.782 159.424 168.664 157.271 169.357 155.118C169.469 154.768 168.656 154.694 168.561 154.99C167.899 157.037 168.766 159.084 169.476 160.943C169.536 161.101 169.594 161.258 169.651 161.416C169.472 161.267 169.276 161.139 169.06 161.046C168.68 160.886 168.276 160.853 167.889 160.927C167.643 159.962 167.282 158.986 166.383 158.625C166.101 158.51 165.814 158.481 165.532 158.516C165.226 157.497 164.726 156.51 163.782 156.143C163.06 155.86 162.302 156.045 161.659 156.461C161.496 156.328 161.312 156.23 161.123 156.17C160.841 156.086 160.535 156.061 160.249 156.127C160.165 156.146 160.067 156.17 160.002 156.238C159.957 156.282 159.926 156.358 159.959 156.423C160 156.499 160.079 156.543 160.151 156.567C160.251 156.597 160.366 156.613 160.469 156.589C160.504 156.581 160.543 156.578 160.581 156.57C160.595 156.57 160.61 156.57 160.626 156.57C160.645 156.572 160.662 156.578 160.681 156.581C160.687 156.581 160.69 156.581 160.696 156.583C160.703 156.586 160.712 156.589 160.722 156.591C160.741 156.597 160.76 156.602 160.779 156.61C160.785 156.613 160.792 156.616 160.799 156.619C160.791 156.616 160.784 156.61 160.772 156.605C160.781 156.61 160.791 156.616 160.799 156.621C160.822 156.632 160.844 156.643 160.808 156.624C160.836 156.637 160.865 156.654 160.894 156.67C160.913 156.681 160.932 156.694 160.951 156.708C160.953 156.708 160.956 156.711 160.956 156.714C160.995 156.743 161.028 156.773 161.062 156.809C161.085 156.83 161.112 156.849 161.143 156.866C161.137 156.866 161.136 156.868 161.134 156.871C159.688 158.219 159.145 160.582 158.872 162.593C158.683 163.993 158.662 165.417 158.798 166.825C158.829 167.168 159.654 167.14 159.625 166.825C159.417 164.68 159.578 162.484 160.135 160.418C160.355 159.598 160.649 158.79 161.077 158.081C161.49 157.396 162.14 156.646 162.891 156.502C163.907 156.303 164.493 157.823 164.746 158.679C164.753 158.706 164.773 158.73 164.792 158.752C164.452 158.923 164.136 159.168 163.871 159.448C162.484 160.894 162.047 163.297 161.884 165.336C161.77 166.773 161.834 168.228 162.066 169.649C162.121 169.994 162.941 169.948 162.891 169.649C162.547 167.515 162.58 165.311 163.015 163.199C163.192 162.335 163.453 161.479 163.857 160.717C164.232 160.016 164.834 159.206 165.573 159.008C165.98 158.899 166.348 159.274 166.57 159.627C166.864 160.095 167 160.669 167.132 161.218C166.988 161.305 166.847 161.405 166.721 161.525C166.032 162.169 165.733 163.15 165.521 164.102C165.272 165.211 165.133 166.352 165.109 167.494C165.081 168.788 165.195 170.079 165.446 171.337C165.516 171.682 166.331 171.628 166.276 171.337C165.791 168.913 165.807 166.344 166.384 163.938C166.62 162.963 167.048 161.734 167.992 161.413C168.87 161.117 169.582 162.299 169.922 163.044C169.958 163.126 170.051 163.175 170.161 163.199C170.211 163.471 170.247 163.745 170.264 164.025C170.328 165.134 170.144 166.233 170.022 167.325C169.919 168.222 169.773 169.32 170.369 170.043C170.854 170.633 171.672 170.75 172.334 170.595C174.062 170.196 174.526 168.013 174.629 166.292C174.7 165.039 174.614 163.786 174.623 162.533C174.632 161.256 174.776 160.011 175.168 158.807C175.281 158.459 174.466 158.385 174.37 158.679Z" fill="#E35A5B"/>
<path d="M163.485 181.481C163.519 181.139 163.615 180.807 163.768 180.489C163.655 180.979 163.557 181.476 163.478 181.973C163.466 181.81 163.469 181.644 163.485 181.481Z" fill="#9D6345"/>
<path d="M263.325 194.46C263.309 194.624 263.28 194.787 263.234 194.942C263.256 194.436 263.258 193.928 263.249 193.422C263.332 193.773 263.359 194.118 263.325 194.46Z" fill="#9D6345"/>
<path d="M11.3699 0V61.2639C11.3699 61.5792 12.4266 61.582 12.4266 61.2639V0H11.3699Z" fill="#342C39"/>
<path d="M11.8577 72.2262H11.4345C9.37858 72.2262 7.70752 70.3316 7.70752 67.9913V54.8872C7.70752 52.5469 9.37858 50.6497 11.4345 50.6497H11.8577C13.916 50.6497 15.5847 52.5469 15.5847 54.8872V67.9913C15.5847 70.3316 13.916 72.2262 11.8577 72.2262Z" fill="#DC9065"/>
<path d="M23.794 81.4569H0V67.9423C0 60.4729 5.3263 54.4142 11.8981 54.4142C18.4676 54.4142 23.794 60.4729 23.794 67.9423V81.4569Z" fill="#D5E2E5"/>
<path d="M49.4836 0V35.7379C49.4836 36.056 50.5402 36.0587 50.5402 35.7379V0H49.4836Z" fill="#342C39"/>
<path d="M49.9713 46.7029H49.5481C47.4921 46.7029 45.8235 44.8083 45.8235 42.4653V29.3639C45.8235 27.0236 47.4921 25.1263 49.5481 25.1263H49.9713C52.0296 25.1263 53.6983 27.0236 53.6983 29.3639V42.4653C53.6983 44.8083 52.0296 46.7029 49.9713 46.7029Z" fill="#DC9065"/>
<path d="M61.9077 55.9336H38.1138V42.4191C38.1138 34.9497 43.4401 28.8937 50.0119 28.8937C56.5813 28.8937 61.9077 34.9497 61.9077 42.4191V55.9336Z" fill="#D5E2E5"/>
<path d="M51.1569 213.819C34.2575 213.819 20.5569 215.578 20.5569 217.744V218.549V221.772V222.58V223.387V226.015V226.608V226.82V227.415V230.851V231.658C20.5569 233.824 34.2575 235.58 51.1569 235.58C68.0562 235.58 81.757 233.824 81.757 231.658V230.851V227.415V226.82V226.608V226.015V223.387V222.58V221.772V218.549V217.744C81.757 215.578 68.0562 213.819 51.1569 213.819Z" fill="#342C39"/>
<path d="M81.5206 218.551C81.5206 219.587 78.3984 220.533 73.2968 221.231C73.295 221.231 73.295 221.231 73.295 221.231C70.9234 221.56 68.1264 221.835 65.0138 222.039C63.7779 222.123 62.4918 222.194 61.1673 222.256C60.737 222.275 60.302 222.294 59.8621 222.308C57.744 222.392 55.5231 222.444 53.2376 222.463C52.5491 222.468 51.8583 222.473 51.1578 222.473C49.7569 222.473 48.3799 222.46 47.0268 222.435C46.9623 222.435 46.8954 222.433 46.8284 222.433C46.4674 222.427 46.1088 222.419 45.7503 222.411C45.3654 222.403 44.9828 222.392 44.6027 222.381C42.6018 222.324 40.6749 222.242 38.8436 222.136C35.8386 221.965 33.0871 221.731 30.6893 221.446C28.5592 221.196 26.7089 220.905 25.2028 220.587C24.3206 220.402 23.5556 220.204 22.9221 219.995C21.5475 219.546 20.7944 219.062 20.7944 218.551C20.7944 218.342 20.9235 218.135 21.1674 217.934C21.5068 217.66 22.0663 217.391 22.8241 217.138C23.7397 216.831 24.9446 216.543 26.3957 216.276C28.3895 215.915 30.8495 215.597 33.6632 215.344C34.1318 215.3 34.6051 215.26 35.0928 215.219C36.3933 215.116 37.7655 215.023 39.1927 214.942C39.2931 214.936 39.3983 214.931 39.5011 214.925C42.028 214.789 44.7271 214.694 47.5432 214.653C47.5886 214.653 47.634 214.653 47.6771 214.653C48.1624 214.645 48.6477 214.64 49.1426 214.635C49.8096 214.629 50.4813 214.626 51.1578 214.626C51.9085 214.626 52.6544 214.629 53.3931 214.637C56.9791 214.67 60.3929 214.784 63.527 214.966C64.225 215.004 64.9111 215.048 65.5781 215.097C75.0737 215.76 81.5206 217.056 81.5206 218.551Z" fill="white"/>
<path d="M47.6764 214.653C47.6549 214.857 47.6285 215.056 47.5926 215.257C47.3297 216.806 46.8803 218.018 47.0691 219.56C47.2174 220.775 47.4301 221.609 46.8277 222.433C46.4667 222.427 46.1082 222.419 45.7496 222.411C45.3647 222.403 44.9821 222.392 44.602 222.381C42.6011 222.324 40.6742 222.242 38.8429 222.136C35.8379 221.965 33.0864 221.731 30.6886 221.446C28.5585 221.196 26.7082 220.905 25.2021 220.587C25.03 220.342 24.8531 220.09 24.6785 219.829C24.0713 218.921 23.4545 218.024 22.8234 217.138C21.5301 215.306 20.1841 213.517 18.7975 211.772C16.8109 209.274 14.4418 206.333 14.7335 202.677C14.9056 200.489 16.7632 198.339 18.6159 198.975C19.3044 199.214 19.9044 199.793 20.6216 199.821C21.6711 199.856 22.4218 198.75 23.1772 197.921C24.7694 196.17 27.4301 195.417 29.2207 196.904C29.9307 197.494 30.4232 198.356 30.942 199.166C31.5014 200.038 32.1636 200.911 32.9477 201.495C33.4904 201.908 34.0881 202.18 34.7431 202.223C36.0579 202.316 37.4325 201.465 38.6445 202.052C40.3514 202.884 40.2822 205.705 41.4655 207.331C42.8641 209.252 45.7256 209.117 47.0453 211.109C47.6979 212.101 47.8102 213.409 47.6764 214.653Z" fill="#4B9D50"/>
<path d="M65.5772 215.096C65.57 215.148 65.5611 215.202 65.5509 215.257C65.2879 216.806 64.8384 218.018 65.0273 219.56C65.1515 220.582 65.3237 221.335 65.0129 222.039C63.777 222.123 62.4908 222.194 61.1664 222.256C60.7361 222.275 60.3011 222.294 59.8612 222.308C57.7431 222.392 55.5222 222.444 53.2367 222.463C52.5482 222.468 51.8574 222.473 51.1569 222.473C49.756 222.473 48.379 222.46 47.0259 222.435C46.9613 222.435 46.8945 222.433 46.8275 222.433C46.4665 222.427 46.1079 222.419 45.7493 222.411C45.3644 222.403 44.9819 222.392 44.6018 222.381C43.93 221.647 43.2846 220.799 42.6367 219.829C41.5227 218.168 40.3752 216.537 39.1918 214.942C38.3957 213.871 37.5829 212.811 36.7557 211.772C34.7691 209.274 32.4001 206.333 32.6917 202.677C32.7228 202.278 32.8113 201.878 32.9475 201.495C33.5452 199.796 35.0608 198.456 36.574 198.975C37.2601 199.214 37.8627 199.793 38.5799 199.821C39.6269 199.856 40.3799 198.75 41.133 197.921C42.7251 196.17 45.3907 195.417 47.1789 196.904C47.8889 197.494 48.3814 198.356 48.9002 199.166C49.8421 200.644 51.0971 202.115 52.7012 202.223C54.0161 202.316 55.3907 201.465 56.6051 202.052C58.3096 202.884 58.2403 205.705 59.4213 207.331C60.8222 209.252 63.6814 209.117 65.001 211.109C65.7325 212.218 65.7875 213.724 65.5772 215.096Z" fill="#357937"/>
<path d="M47.0262 222.435C46.5983 222.43 46.1751 222.422 45.7495 222.411C43.3398 222.354 41.0233 222.264 38.843 222.136C35.838 221.965 33.0863 221.731 30.6885 221.446C27.3106 221.049 24.6331 220.555 22.9214 219.995C22.7852 219.812 22.6441 219.636 22.5006 219.459C22.0799 218.94 21.6186 218.44 21.1667 217.934C19.6296 216.216 18.1927 214.439 18.788 211.723C19.1298 210.16 20.0933 209.141 21.3244 208.54C23.5931 207.429 26.7823 207.725 28.7044 208.611C30.4089 209.405 31.8671 210.734 33.1055 212.297C33.5621 212.87 33.9924 213.479 34.3917 214.099C34.6235 214.463 34.8555 214.841 35.0921 215.219C36.3257 217.233 37.5975 219.31 39.5889 220.125C40.6886 220.574 41.8862 220.574 43.0409 220.78C43.7222 220.9 44.3941 221.098 45.0443 221.362C45.7352 221.645 46.3974 222.006 47.0262 222.435Z" fill="#DC9065"/>
<path d="M30.6885 221.446C27.3106 221.049 24.6331 220.554 22.9214 219.994C22.7852 219.812 22.6441 219.636 22.5006 219.459C22.0799 218.94 21.6186 218.44 21.1667 217.934C19.6296 216.216 18.1927 214.439 18.788 211.723C19.1298 210.16 20.0933 209.141 21.3244 208.54C21.3244 209.103 21.3437 209.636 21.4774 210.014C22.1922 212.025 23.6936 213.512 25.116 214.955C25.5439 215.39 25.9718 215.83 26.395 216.276C27.9226 217.896 29.3928 219.589 30.6885 221.446Z" fill="#9D6345"/>
<path d="M61.1667 222.256C60.7364 222.275 60.3013 222.294 59.8614 222.308C57.7433 222.392 55.5224 222.444 53.237 222.463C52.5485 222.468 51.8576 222.473 51.1571 222.473C49.7562 222.473 48.3793 222.46 47.0262 222.435C46.5983 222.43 46.1751 222.422 45.7495 222.411C43.3398 222.354 41.0233 222.264 38.843 222.136C38.231 221.207 37.5975 220.302 36.9138 219.459C35.8093 218.103 34.4323 216.863 33.6625 215.344C33.2059 214.449 32.962 213.463 33.1055 212.297C33.127 212.112 33.158 211.919 33.201 211.723C33.5453 210.16 34.5063 209.141 35.7375 208.54C38.0086 207.429 41.1953 207.725 43.1174 208.611C44.7311 209.364 46.1224 210.592 47.3177 212.047C47.8508 212.694 48.3457 213.387 48.8047 214.099C48.9171 214.273 49.0294 214.452 49.1418 214.634C50.4972 216.817 51.8145 219.228 54.0019 220.125C55.104 220.573 56.2993 220.573 57.4539 220.78C58.0229 220.883 58.5848 221.036 59.1322 221.237C59.8375 221.498 60.5189 221.84 61.1667 222.256Z" fill="#DC9065"/>
<path d="M45.7495 222.411C43.3398 222.354 41.0233 222.264 38.843 222.136C38.231 221.207 37.5975 220.302 36.9138 219.459C35.8093 218.103 34.4323 216.863 33.6625 215.344C33.2059 214.449 32.962 213.463 33.1055 212.297C33.127 212.112 33.158 211.919 33.201 211.723C33.5453 210.16 34.5063 209.141 35.7375 208.54C35.7375 209.103 35.7567 209.636 35.8905 210.014C36.5981 212.011 38.0874 213.49 39.5003 214.925C39.5092 214.936 39.5194 214.944 39.5289 214.955C41.4917 216.95 43.4017 219.027 45.0441 221.362C45.276 221.691 45.5032 222.028 45.7231 222.365C45.7321 222.381 45.7423 222.395 45.7495 222.411Z" fill="#9D6345"/>
<path d="M59.8615 222.308C57.7434 222.392 55.5225 222.444 53.2371 222.463C52.5558 221.422 51.8553 220.402 51.0903 219.459C49.8281 217.902 48.2 216.505 47.5426 214.653C47.2629 213.879 47.1577 213.023 47.3179 212.047C47.334 211.941 47.356 211.835 47.3801 211.723C47.7219 210.16 48.6829 209.141 49.9141 208.54C52.1852 207.429 55.372 207.725 57.2965 208.611C59.6273 209.696 61.4968 211.786 62.9813 214.099C63.163 214.382 63.3423 214.673 63.5264 214.966C64.8102 217.056 66.1035 219.274 68.1786 220.125C69.2807 220.574 70.4759 220.574 71.633 220.78C72.1972 220.881 72.7519 221.033 73.2945 221.231C69.9835 221.691 65.8357 222.044 61.1668 222.256C60.7365 222.275 60.3013 222.294 59.8615 222.308Z" fill="#DC9065"/>
<path d="M59.8615 222.308C57.7434 222.392 55.5225 222.444 53.2371 222.463C52.5558 221.422 51.8553 220.402 51.0903 219.459C49.8281 217.902 48.2 216.504 47.5426 214.653C47.2629 213.879 47.1577 213.022 47.3179 212.047C47.334 211.941 47.356 211.835 47.3801 211.723C47.7219 210.16 48.6829 209.141 49.9141 208.54C49.9141 209.103 49.9334 209.636 50.0696 210.014C50.7294 211.878 52.0682 213.289 53.3926 214.637C53.4979 214.743 53.6029 214.849 53.7081 214.955C55.6326 216.915 57.5116 218.953 59.1324 221.237C59.3834 221.587 59.6272 221.946 59.8615 222.308Z" fill="#9D6345"/>
</g>
<defs>
<clipPath id="clip0_207_17958">
<rect width="294.181" height="250" fill="white"/>
</clipPath>
</defs>
</svg>
