<svg width="176" height="149" viewBox="0 0 176 149" fill="none" xmlns="http://www.w3.org/2000/svg">
<path d="M78.3529 148.878C42.4854 147.581 50.0057 135.575 32.3787 117.736C29.6492 115.587 26.6279 113.71 23.4291 111.723C-17.1896 93.9111 1.55396 34.5733 32.0182 12.7741C41.644 5.14221 57.199 -1.26166 76.6281 11.5736C80.7361 14.2875 84.7055 14.4873 93.9033 7.78261C117.623 -10.1449 153.891 6.2046 168.147 30.3589V30.3592C191.116 72.2973 154.037 113.213 118.847 123.446C98.2202 130.389 108.893 147.972 78.3529 148.878ZM54.601 8.40155C13.6381 12.148 -18.9502 89.3205 25.6676 108.183C49.4649 120.035 42.0819 138.919 65.381 143.375C104.836 150.74 92.8547 129.017 117.321 119.555C150.887 110.751 185.845 69.0622 164.597 32.6083C151.506 10.5601 118.452 -5.29901 96.3997 11.1479C88.1773 17.1401 81.6106 19.8832 74.2909 15.0478C67.5838 10.6172 61.0052 8.40155 54.601 8.40155Z" fill="#2C2323"/>
<path d="M157.969 95.8277C141.447 113.207 127.701 117.796 118.085 121.5C94.6196 131.114 105.691 150.067 71.4416 146.386C46.6246 145.685 46.5302 127.725 33.6914 116.099C26.9145 110.764 18.2887 106.985 11.7574 100.713C-11.1055 76.2274 9.44368 32.398 33.3313 14.4033C52.5644 -0.838871 69.6893 9.50002 75.458 13.3124C81.2267 17.1204 86.5362 15.7468 95.1535 9.4623C113.187 -2.71109 136.241 1.27312 152.487 15.9603C177.186 34.1223 179.899 70.9597 157.969 95.8277Z" fill="#F8EBCB"/>
<path d="M84.3261 101.041C49.5615 100.41 49.5678 45.0483 84.3275 44.4238C119.091 45.0539 119.085 100.416 84.3261 101.041ZM84.3261 48.5996C55.0995 49.1306 55.1048 96.339 84.3271 96.8651C113.553 96.3338 113.548 49.1257 84.3261 48.5996Z" fill="#2C2323"/>
<path d="M108.683 72.7321C108.108 107.212 60.5402 107.207 59.9692 72.7311C60.5448 38.2517 108.112 38.2567 108.683 72.7321Z" fill="#FECE60"/>
<g opacity="0.25">
<path d="M108.684 72.7322C109.18 99.7466 73.515 109.015 62.5215 84.4323C83.1805 104.365 112.613 77.8477 100.783 53.4028C105.642 58.1969 108.684 65.0826 108.684 72.7322Z" fill="black"/>
</g>
<g opacity="0.35">
<path d="M104.213 57.5871C81.3432 37.7759 52.8159 69.4279 68.7033 92.8422C42.303 67.8745 80.703 26.1192 104.213 57.5871Z" fill="white"/>
</g>
<g opacity="0.7">
<path d="M118.111 2.26791C95.179 3.62419 96.7466 30.0718 72.3611 21.0387C37.9788 0.371418 -1.34163 68.2746 11.7574 100.713C-21.6558 67.0784 36.2514 -18.6696 75.458 13.3136C87.8457 21.6445 97.443 1.52532 118.111 2.26791Z" fill="white"/>
</g>
<g opacity="0.25">
<path d="M157.969 95.8276C141.447 113.207 127.701 117.796 118.085 121.5C94.6206 131.111 105.691 150.068 71.442 146.387C81.5424 143.593 86.3337 136.198 93.2992 126.899C103.771 112.927 120.221 110.384 141.586 88.5788C162.954 66.7695 172.781 33.7441 152.487 15.96C177.17 34.1269 179.911 70.9564 157.969 95.8276Z" fill="black"/>
</g>
</svg>
