<svg width="139" height="162" viewBox="0 0 139 162" fill="none" xmlns="http://www.w3.org/2000/svg">
<path d="M12.4241 132.829C-4.39604 131.508 -1.03841 113.118 7.18793 100.207C16.8075 86.2446 31.5664 83.3257 42.4679 70.0716C54.1046 56.2838 60.6147 35.503 68.7738 18.1334C73.5604 7.83717 81.0215 1.32178 89.2442 0.258078C93.8583 -0.526826 102.548 1.79279 101.753 6.56946C90.5599 27.6179 71.8488 72.9645 60.5011 91.2659C48.9598 104.209 29.2878 132.295 12.4241 132.829ZM91.4321 4.29149C64.3 5.64974 66.9225 67.7539 27.33 87.959C-11.1296 110.412 -0.129798 163.803 53.4757 93.0958C63.5328 83.0066 83.2044 32.6619 97.3053 6.105C95.8274 4.93765 93.7358 4.29149 91.4321 4.29149Z" fill="#2C2323"/>
<path d="M99.852 5.66855C70.8614 -14.1915 60.1565 58.6569 44.0858 71.407C32.3353 85.3824 17.8064 88.2406 8.93961 101.367C0.0727775 114.494 -0.674966 132.597 14.7086 130.585C30.0921 128.574 58.1884 89.6169 59.4704 89.4053C69.9482 70.4784 90.1306 24.4347 99.852 5.66855Z" fill="#E9CA70"/>
<g opacity="0.35">
<path d="M99.2986 5.07611C72.1202 2.43243 66.5326 59.6881 49.6702 74.0939C37.9197 88.0673 23.3904 90.9275 14.5246 104.056C8.19551 113.426 6.00001 125.331 10.8584 130.646C-0.468388 129.302 0.888343 113.284 8.94124 101.367C17.8071 88.2425 32.3367 85.3823 44.0888 71.4105C60.4078 58.4269 69.9591 -12.3489 99.2986 5.07611Z" fill="white"/>
</g>
<path d="M29.6017 150.467C7.81326 150 5.46811 122.041 17.9296 107.808C21.2353 103.624 26.0219 99.6154 31.5645 94.9742C65.7326 69.9153 61.799 47.2574 80.9043 16.2696C92.5393 0.234379 100.615 -1.43612 112.33 1.05078C123.28 3.22902 127.305 12.2553 123.635 22.5518C123.373 23.1002 104.187 63.2652 103.872 63.7627C101.783 66.7987 52.6042 138.2 44.1246 144.951C39.5889 148.563 34.5716 150.467 29.6017 150.467ZM104.758 4.30683C77.1177 7.70885 73.4019 52.5448 59.0285 72.6164C48.9168 88.6208 32.2937 97.8354 21.2459 110.382C5.49692 128.512 19.4698 157.86 41.4869 141.697C58.1577 124.05 107.654 54.6985 119.691 21.0732C123.926 9.26652 115.386 4.29338 104.758 4.30683Z" fill="#2C2323"/>
<path d="M121.645 21.8653C124.423 13.9608 122.856 5.42135 111.888 3.09255C100.92 0.763422 93.7272 2.17513 82.6169 17.4898C54.0354 72.5174 70.7389 64.564 19.5842 109.093C2.34077 129.032 18.5551 161.023 42.8062 143.324C71.257 110.747 109.014 54.6256 121.645 21.8653Z" fill="#DC7056"/>
<g opacity="0.25">
<path d="M120.89 8.47912C85.0789 -4.31977 78.2017 52.6112 62.8205 75.8113C45.4896 102.468 4.04513 115.443 22.1939 146.618C8.81517 139.963 10.0826 121.277 19.5856 109.096C27.5623 99.0032 45.8673 88.8398 57.2616 71.4774C72.4052 49.1029 78.3434 -4.53297 111.891 3.09204C116.302 4.02783 119.197 5.97385 120.89 8.47912Z" fill="white"/>
</g>
<path d="M51.2411 136.617C47.571 136.671 44.8875 132.725 46.3853 129.377C49.0654 120.304 41.0056 115.831 35.9976 111.982C30.0932 108.021 24.7591 103.345 29.4073 96.2442C38.9435 83.65 59.9305 104.255 71.3434 102.01C75.3932 99.7928 72.719 91.908 65.3702 86.7762C56.1525 80.5032 46.7114 75.0127 54.3426 66.5517C58.6767 62.3254 64.6903 63.9946 71.0564 65.7615C75.1856 67.2982 88.6117 69.5584 90.6073 68.2363C92.6929 66.9466 92.8779 62.368 86.0428 58.2739C79.2801 53.9443 65.1259 52.4319 66.4443 42.0265C67.8216 31.2346 87.9063 35.246 96.61 34.9256C101.68 34.6888 105.253 32.9173 103.647 30.6314C100.699 26.4284 91.4003 22.214 81.0341 20.3821C78.1752 19.877 76.2634 17.1611 76.7728 14.3275C78.8945 2.61857 110.249 19.1242 112.296 24.6726C119.412 35.3468 109.314 45.5275 96.8284 45.3619C91.6363 45.4646 87.5842 45.0208 82.0105 44.9289C85.2695 46.2705 88.5432 47.5372 91.5847 49.3969C106.893 58.8735 104.967 74.9596 92.7068 78.4869C87.0907 80.1883 74.2466 77.7585 67.6805 75.6662C83.4348 84.2342 90.8214 105.404 74.7282 111.896C65.5466 115.8 52.1219 106.814 42.079 103.46C52.9401 109.835 61.2608 122.952 56.0989 133.416C55.2767 135.361 53.3698 136.617 51.2411 136.617ZM38.0455 96.4485C34.6342 96.2655 31.5148 98.6859 31.9448 101.92C32.3579 104.338 35.1681 106.298 38.4221 108.568C44.6323 113.32 54.1049 118.968 50.2713 130.993C50.0458 131.524 50.2987 132.137 50.8346 132.36C51.3692 132.581 51.9951 132.316 52.2133 131.801C56.5623 123.217 48.6467 112.089 39.6339 106.862C36.3736 104.586 34.8238 103.378 34.2479 102.225C33.43 98.2929 37.4589 97.9186 42.274 99.1742C51.8018 101.589 64.7333 111.343 73.3737 107.941C83.744 103.394 80.4121 89.7259 68.9741 81.6315C65.2047 79.0629 59.3711 75.1171 58.5635 73.8083C56.6993 68.8933 62.7728 69.7956 69.3478 71.7928C77.7062 73.7936 94.7173 79.2282 97.6662 68.7076C100.787 59.768 90.124 52.0134 81.3644 49.1851C76.51 47.2013 74.0371 46.0149 73.1083 44.635C69.6321 35.1837 104.714 47.5959 109.617 35.0391C114.117 22.3678 92.4559 16.3385 82.1439 14.216C81.5696 14.1143 81.0235 14.4945 80.9209 15.0612C80.8193 15.627 81.2016 16.1705 81.7735 16.2716C93.5148 18.3465 103.458 23.0477 107.106 28.2482C110.821 34.4982 105.254 38.7045 96.6967 39.1007C90.6513 39.2499 82.3822 38.2525 76.8489 38.8196C71.1137 39.4326 70.733 41.8661 70.6082 42.6657C70.0088 46.4991 74.1599 48.4995 80.5624 51.1144C83.2269 52.2027 85.9818 53.3277 88.2588 54.7227C94.5759 58.5954 96.986 62.9978 95.6279 68.1819C94.6342 71.9706 91.6261 73.9422 79.7193 72.0712C72.8488 71.5218 61.5885 65.4322 57.2974 69.5283C53.3072 74.4981 57.9306 76.212 65.8057 81.9989C76.1677 88.1036 82.3683 101.505 72.6978 105.964C63.8062 109.387 46.2414 95.5944 38.0455 96.4485Z" fill="#2C2323"/>
<path d="M111.494 35.9884C105.914 47.7468 84.4924 40.9569 74.8626 43.4753C78.1431 46.4463 86.3284 48.3241 90.4749 51.1715C103.458 58.8378 103.235 73.2219 92.1991 76.4593C87.1444 78.016 74.8358 75.7315 68.7821 73.8032C65.5168 72.9103 61.0933 71.6439 60.2281 72.5299C61.3088 73.9685 66.9722 77.6998 70.1726 79.9164C92.4221 96.4985 79.4982 120.029 55.4789 106.886C51.3778 105.124 39.8186 98.5882 36.1373 101.3C38.1484 103.742 43.0482 106.403 45.964 108.946C54.4171 115.91 57.4805 124.755 54.1559 132.609C53.6501 133.807 52.4747 134.53 51.2398 134.53C49.0466 134.554 47.4227 132.203 48.328 130.187C54.62 112.701 23.1554 109.587 31.1183 97.4628C40.4085 86.5374 61.2638 107.589 72.018 103.989C78.2173 100.893 75.5236 91.5371 66.5704 85.0611C60.7494 80.7613 48.8629 75.1066 55.8202 68.0408C61.5574 62.7686 72.3758 69.3712 80.0497 70.0072C92.4596 71.9618 93.1378 69.3728 93.5889 67.6568C94.2883 64.9885 94.381 60.9298 87.15 56.4995C81.3128 52.5035 67.3823 50.9029 68.5246 42.3483C69.6384 35.3632 80.9113 36.5237 87.0993 36.7401C117.185 39.4911 107.949 23.6457 83.7493 18.7851C77.2154 18.6359 77.4245 11.9581 82.515 12.1618C94.6491 14.5837 116.957 21.3796 111.494 35.9884Z" fill="#FECE60"/>
<g opacity="0.35">
<path d="M83.7496 18.7844C81.4058 18.5148 78.299 17.6849 78.8448 14.6919C79.6468 10.9271 83.828 12.3638 86.5267 12.9886C83.9349 14.3082 83.1892 16.5005 83.7496 18.7844Z" fill="white"/>
</g>
<g opacity="0.35">
<path d="M72.9328 43.6007C72.5661 46.7114 75.4484 49.6427 78.7859 52.6453C73.148 50.3237 67.6782 47.7764 68.5252 42.348C69.0267 39.1494 71.7489 37.2663 76.6242 36.7441C79.1146 36.4768 82.0598 36.527 85.2077 36.6605C77.0412 36.5185 73.4594 39.0907 72.9328 43.6007Z" fill="white"/>
</g>
<g opacity="0.35">
<path d="M58.0832 72.1495C57.2825 74.7092 58.2686 77.8619 60.4429 80.8307C54.4392 76.5768 51.3199 73.0597 55.8202 68.0403C59.2834 64.6596 64.5033 66.1044 70.5099 67.7815C63.5275 66.0988 59.3642 68.0363 58.0832 72.1495Z" fill="white"/>
</g>
<g opacity="0.35">
<path d="M34.6332 100.31C32.7455 104.377 36.9214 108.227 41.0215 113.038C37.1355 109.86 30.5758 106.787 29.8674 102.269C29.4749 93.188 39.6617 92.9 48.4885 96.8318C41.9231 94.46 36.5672 96.1262 34.6332 100.31Z" fill="white"/>
</g>
<path d="M61.7596 161.56C39.8517 162.968 23.3504 132.076 43.7353 115.599C45.7293 113.796 47.6335 112.115 49.4748 110.488C69.3451 97.1785 94.5402 54.8783 98.7585 32.6009C102.659 16.6322 111.527 7.09066 127.48 17.4948C152.304 33.5937 129.452 83.781 118.646 109.761C103.059 138.241 88.085 160.58 61.7596 161.56ZM115.153 17.3341C107.625 17.3285 105.097 26.3971 102.785 33.8414C95.6507 64.0279 72.0977 99.7205 46.573 118.682C34.7374 129.382 37.1054 138.395 45.1957 150.348C53.8103 161.25 71.1481 158.06 80.6455 151.831C106.363 134.534 129.406 82.5385 133.131 51.2854C136.215 32.0026 132.728 25.7696 125.212 21.0136C121.343 18.5651 117.972 17.3341 115.153 17.3341Z" fill="#2C2323"/>
<path d="M135.214 51.6137C128.941 88.7348 101.702 163.491 56.8291 159.109C51.354 158.272 46.432 155.922 43.4444 151.512C35.8125 140.291 31.6539 129.245 45.1554 117.143C58.5089 105.075 67.9437 98.298 81.4787 77.407C101.277 52.4452 97.882 5.01934 122.846 17.2859C122.846 17.2901 122.846 17.2901 122.846 17.2901C134.76 23.49 138.51 30.0451 135.214 51.6137Z" fill="#E9CA70"/>
<g opacity="0.25">
<path d="M135.214 51.6136C128.938 88.7301 101.705 163.492 56.8274 159.107C88.1155 144.012 100.568 125.704 118.229 83.2666C130.831 50.4483 134.784 24.8308 126.347 19.2522C135.146 24.8226 138.311 32.2384 135.214 51.6136Z" fill="black"/>
</g>
<g opacity="0.35">
<path d="M122.846 17.2855C115.024 13.7254 114.098 17.9733 109.395 34.0758C104.697 50.1645 95.7927 78.3962 73.7839 103.801C55.2681 125.176 40.8401 131.264 39.0153 144.008C34.7636 135.177 34.7255 126.567 45.1547 117.142C58.5085 105.074 67.943 98.2975 81.478 77.4066C101.273 52.4526 97.8833 5.01763 122.846 17.2855Z" fill="white"/>
</g>
</svg>
