<svg width="199" height="128" viewBox="0 0 199 128" fill="none" xmlns="http://www.w3.org/2000/svg">
<path d="M182.764 50.4638C176.327 75.7411 145.493 129.707 104.456 125.94C59.5426 128.482 44.2193 101.381 26.4701 77.349C16.6589 71.8887 1.3962 96.7039 1.84669 84.7008C5.17755 58.5385 40.1328 32.6206 66.6386 57.6106C72.8177 62.9094 81.3502 66.8244 87.6657 64.6902C104.786 58.9623 115.475 41.4271 113.467 21.4558C121.791 22.715 158.576 28.3737 159.044 28.7633C160.755 29.3977 184.685 44.1127 182.764 50.4638Z" fill="#FECE60"/>
<g opacity="0.35">
<path d="M124.019 23.0716C122.16 54.78 93.3053 87.3537 62.7908 65.3905C42.1853 44.0987 17.5689 55.5315 4.56851 81.7993C4.56884 81.798 3.28788 83.318 1.84671 84.7002C4.14484 73.7034 6.47475 65.9756 23.2651 53.1108C39.77 41.0575 57.0003 49.2499 70.4269 60.4233C93.6214 77.0473 117.009 44.8708 113.467 21.4556C113.467 21.4556 117.909 22.1319 124.019 23.0716Z" fill="white"/>
</g>
<path d="M182.764 50.4639C176.317 75.7648 145.499 129.694 104.456 125.94C79.6721 126.473 65.6781 121.179 50.2932 107.629C27.3476 86.9099 31.9508 63.8069 8.0397 85.2939C-2.00217 94.4759 2.66858 78.318 5.36524 73.1756C2.5716 79.7271 3.93664 82.8506 7.89772 79.2636C15.5538 73.2684 21.0027 70.4571 28.3558 73.1585C34.9692 76.5717 37.3819 85.332 42.1946 91.5233C56.327 111.893 77.8188 123.013 104.357 121.35C142.914 125.3 172.508 72.2598 178.158 49.6668C178.84 48.1439 162.628 35.5606 158.888 33.933L160.329 29.4443C165.656 32.5003 184.475 44.8016 182.764 50.4639Z" fill="#F9A35A"/>
<path d="M101.072 127.024C71.0019 129.013 44.4362 109.663 32.2693 86.3774C29.8933 82.3555 28.0169 79.1778 26.0392 78.3044C16.9367 74.2283 7.27875 91.2682 2.15222 88.8082C-3.33874 81.9179 9.13335 60.8846 22.6464 52.2671C54.7547 31.5306 66.5486 67.7907 87.3963 63.6821C104.087 58.3154 114.531 40.0855 112.419 21.5564C112.335 20.9057 112.973 20.3038 113.627 20.4235C120.971 21.5407 157.693 27.1452 159.415 27.7855C162.504 28.779 187.691 45.9147 183.772 50.7638C174.047 82.7484 145.978 130.646 101.072 127.024ZM23.3806 75.6758C29.0036 75.8411 30.4047 79.3602 34.0878 85.3242C55.2804 130.431 128.323 141.767 158.732 95.4686C174.188 74.7689 181.453 51.1584 181.755 50.1633C181.992 49.3777 181.963 46.205 171.654 38.3205C165.752 33.8059 159.404 30.0198 158.674 29.7404C157.216 29.2671 132.029 25.3396 114.628 22.6884C116.31 41.6714 105.15 60.2854 87.9345 65.6997C66.0945 70.4626 54.146 34.0099 23.8844 53.9566C9.52492 64.2817 2.23001 77.1639 3.24618 87.0232C3.48648 87.1705 4.68571 87.0039 7.31683 84.5347C13.5976 78.6409 18.9813 75.6758 23.3806 75.6758Z" fill="#2C2323"/>
<path d="M51.5742 83.3347C51.6122 88.2633 47.1186 92.1786 42.1943 91.5233C39.3841 87.4643 37.644 84.2315 35.3972 80.5497C38.3156 72.0132 51.692 74.1835 51.5742 83.3347Z" fill="#8A2C44"/>
<g opacity="0.2">
<path d="M51.549 82.7038C48.383 77.5804 39.7002 78.1521 37.2346 83.6225C36.5974 82.5463 35.9814 81.4994 35.3972 80.5491C38.1796 72.3193 51.0346 73.9514 51.549 82.7038Z" fill="white"/>
</g>
<path d="M43.2435 92.6339C42.5627 92.5896 41.757 92.7208 41.3261 92.114C39.2759 89.1564 37.6093 86.3294 36.27 84.0573C35.6233 82.5672 34.2903 81.6318 34.4049 80.1981C35.7351 76.509 39.2871 74.031 43.2432 74.031C55.5736 74.2508 55.5769 92.4161 43.2435 92.6339ZM42.7874 90.5327C46.9498 90.8033 50.5365 87.4708 50.5206 83.3347C50.6255 75.6412 39.5519 73.3908 36.5683 80.4516C38.5867 83.7874 40.2559 86.8312 42.7874 90.5327Z" fill="#2C2323"/>
<path d="M101.072 127.024C71.0356 129.005 44.412 109.669 32.2693 86.3776C29.8933 82.3556 28.0166 79.178 26.0388 78.3045C16.6434 74.3098 7.61174 91.1339 2.15189 88.8084C0.467435 87.7919 0.311853 84.874 1.68948 80.1351C2.08568 79.5893 3.70164 71.2752 5.7919 72.2211C6.3172 72.452 6.55883 73.0572 6.33507 73.5816C4.62777 77.5855 4.85913 79.4912 5.13651 79.7326C13.1497 74.1488 20.4641 68.4999 28.7858 72.2063C35.5938 75.5549 38.1852 84.589 43.0625 90.9319C57.7092 111.582 77.7417 121.684 104.332 120.306C142.303 123.872 170.81 73.1152 177.018 49.7728C176.423 48.7976 174.371 46.087 167.887 41.2513C163.646 37.6269 157.347 35.1758 157.883 33.6161C157.883 33.6158 159.325 29.1268 159.325 29.1268C159.507 28.5085 160.299 28.1992 160.856 28.54C161.109 28.6857 186.046 43.2416 183.772 50.764C180.988 59.9441 172.939 79.9524 160.425 96.7122C145.264 117.248 126.46 127.433 101.072 127.024ZM23.3806 75.6756C29.0046 75.8406 30.4041 79.3607 34.0878 85.3244C37.5331 91.1592 42.2515 99.1496 50.9929 106.849C80.2887 134.101 134.404 131.992 158.731 95.4704C174.188 74.769 181.453 51.1586 181.755 50.1634C182.937 46.2419 169.573 36.1657 160.932 31.0092L160.142 33.4708C163.785 35.1108 179.787 47.5945 179.11 49.2224C174.071 72.9653 143.326 126.236 104.378 122.391C72.5599 124.712 48.337 107.564 34.4972 81.0909C28.3068 69.5961 18.3822 71.8059 8.5915 80.0492C5.92431 82.3304 4.67942 82.1129 3.58943 81.1532C-0.531518 97.1199 12.6426 74.8336 23.3806 75.6756Z" fill="#2C2323"/>
<path d="M43.0287 65.8195C34.5449 65.6782 34.5459 54.8679 43.0291 54.7275C51.5126 54.8689 51.5113 65.6791 43.0287 65.8195ZM43.0287 58.9033C40.1179 58.9706 40.1179 61.5772 43.0287 61.6441C45.9392 61.5768 45.9396 58.9702 43.0287 58.9033Z" fill="#2C2323"/>
<path d="M68.2728 97.1953C63.2287 97.2228 64.032 90.1075 66.6476 86.7045C72.6817 77.1627 81.4867 82.7784 75.2215 92.173C75.2212 92.173 75.2211 92.173 75.2211 92.173C73.5913 94.6749 70.987 97.1589 68.2728 97.1953ZM73.1603 86.0115C71.7337 86.2201 68.3092 91.4943 68.7084 92.8663C70.1347 92.6571 73.5589 87.3838 73.1603 86.0115Z" fill="#2C2323"/>
<path d="M86.9001 115.857C79.26 115.729 79.2606 105.95 86.9004 105.823C94.5412 105.951 94.5399 115.73 86.9001 115.857ZM86.9001 109.999C84.8055 110.121 84.8059 111.558 86.9001 111.681C88.9947 111.558 88.995 110.121 86.9001 109.999Z" fill="#2C2323"/>
<path d="M108.979 107.599C88.3321 107.235 88.3357 77.4616 108.98 77.1001C129.627 77.4645 129.624 107.238 108.979 107.599ZM108.979 81.2759C93.8704 81.5419 93.872 103.16 108.98 103.423C124.089 103.158 124.086 81.5399 108.979 81.2759ZM108.979 101.336C96.6388 101.119 96.6411 83.5784 108.98 83.3636C121.32 83.5804 121.318 101.121 108.979 101.336ZM108.979 87.5393C102.212 87.5764 102.212 97.1238 108.98 97.1599C115.747 97.1228 115.746 87.5757 108.979 87.5393Z" fill="#2C2323"/>
<path d="M139.336 98.5482C133.652 98.5226 133.652 88.9453 139.336 88.9204C145.02 88.946 145.02 98.5233 139.336 98.5482ZM139.336 93.1916C139.165 93.3858 139.165 94.0831 139.336 94.277C139.508 94.0831 139.508 93.3855 139.336 93.1916Z" fill="#2C2323"/>
<path d="M139.573 77.9278C136.241 77.9278 133.174 77.0655 132.804 74.5616C132.117 68.4454 150.294 65.8135 151.403 71.8671C152.01 76.1304 143.915 77.9695 139.573 77.9278ZM138.608 73.7209C140.356 73.9203 143.981 73.3939 145.6 72.7084C143.85 72.5103 140.227 73.0347 138.608 73.7209Z" fill="#2C2323"/>
<path d="M117.418 66.9129C111.089 66.9651 111.09 59.4027 117.418 59.4558C123.747 59.4034 123.747 66.9657 117.418 66.9129Z" fill="#2C2323"/>
<path d="M120.431 47.3002C112.524 46.4103 121.79 31.1367 126.934 34.3803C131.091 37.2965 125.057 47.1372 120.431 47.3002Z" fill="#2C2323"/>
<path d="M167.058 60.2265C161.142 60.2366 161.143 52.7582 167.059 52.7691C172.974 52.7589 172.974 60.2373 167.058 60.2265Z" fill="#2C2323"/>
<path d="M138.219 61.6438C133.108 62.0242 125.78 57.2702 125.716 53.5048C124.147 44.6403 138.7 33.4377 146.258 39.4264C158.766 45.3933 149.608 61.7937 138.219 61.6438ZM140.426 41.9346C137.326 41.3035 128.695 48.8134 129.847 52.6851C130.241 54.6318 132.354 55.8785 134.057 56.5817C145.84 61.3079 155.101 43.6818 140.426 41.9346Z" fill="#2C2323"/>
<path d="M47.3731 60.2733C47.3629 64.7899 38.6937 64.7896 38.6844 60.273C38.6946 55.7568 47.3639 55.7571 47.3731 60.2733Z" fill="#8A2C44"/>
<g opacity="0.2">
<path d="M47.3688 60.1139C45.1703 57.6945 39.3831 59.0653 39.687 62.4857C35.2042 57.1481 46.7211 54.2551 47.3688 60.1139Z" fill="white"/>
</g>
<path d="M87.6658 64.6902C86.3245 76.4779 63.4167 72.0282 70.427 60.4226C76.95 64.8532 82.2595 66.1059 87.6658 64.6902Z" fill="#8A2C44"/>
<g opacity="0.2">
<path d="M78.6778 71.7346C71.8645 72.0416 66.4738 65.7565 70.4269 60.4229C71.5477 61.1828 72.6307 61.851 73.6843 62.423C71.9829 66.2741 74.527 70.3045 78.6778 71.7346Z" fill="white"/>
</g>
<path d="M78.3911 72.7825C70.79 72.8989 65.1875 65.738 69.5809 59.8012C69.9182 59.3502 70.555 59.244 71.0227 59.5615C77.7493 64.4749 82.6004 64.3175 88.3363 63.8838C89.8176 68.55 83.8109 72.8658 78.3911 72.7825ZM70.744 61.8883C66.8677 70.8886 83.5339 73.982 86.3093 66.0503C81.3469 66.8873 76.4478 65.5708 70.744 61.8883Z" fill="#2C2323"/>
<path d="M73.4493 91.0431C68.8199 98.139 63.8182 94.9486 68.4187 87.8346C73.0481 80.7386 78.0498 83.9291 73.4493 91.0431Z" fill="#B9B41A"/>
<g opacity="0.25">
<path d="M75.2602 85.748C72.4404 84.4436 67.0848 91.9344 67.6247 94.9802C63.1304 92.9112 73.8061 78.4723 75.2602 85.748Z" fill="white"/>
</g>
<path d="M90.6037 110.84C90.6815 114.636 83.1184 114.636 83.1969 110.84C83.1191 107.044 90.6821 107.043 90.6037 110.84Z" fill="#8A2C44"/>
<g opacity="0.2">
<path d="M90.5143 110.205C88.2754 108.566 83.7282 110.225 84.5686 113.115C79.6473 109.15 88.9563 105.389 90.5143 110.205Z" fill="white"/>
</g>
<path d="M108.979 79.188C91.0969 79.4871 91.0995 105.215 108.98 105.511C126.862 105.212 126.859 79.4848 108.979 79.188ZM108.979 99.2478C99.4076 99.0812 99.409 85.6168 108.98 85.4515C118.551 85.6181 118.55 99.0825 108.979 99.2478Z" fill="#DC7056"/>
<g opacity="0.25">
<path d="M119.788 84.3576C107.461 75.5554 91.4841 90.855 100.948 102.973C84.8486 90.2928 106.783 69.2037 119.788 84.3576Z" fill="white"/>
</g>
<path d="M141.579 93.7345C141.62 97.2732 137.052 97.2733 137.093 93.7341C137.052 90.1957 141.62 90.1957 141.579 93.7345Z" fill="#8A2C44"/>
<g opacity="0.2">
<path d="M141.232 92.287C139.149 91.6044 137.735 94.6115 138.767 96.3666C134.948 94.9877 138.541 88.1263 141.232 92.287Z" fill="white"/>
</g>
<path d="M149.318 72.1699C149.917 75.2704 135.209 77.4001 134.889 74.2592C134.29 71.159 148.998 69.0296 149.318 72.1699Z" fill="#B9B41A"/>
<g opacity="0.25">
<path d="M149.078 71.6801C146.423 70.6711 135.018 72.4226 136.804 75.5636C129.027 72.7995 146.916 68.5598 149.078 71.6801Z" fill="white"/>
</g>
<path d="M120.124 63.1847C120.191 65.3082 114.645 65.3082 114.711 63.1844C114.645 61.0612 120.191 61.0612 120.124 63.1847Z" fill="#8A2C44"/>
<g opacity="0.2">
<path d="M120.02 62.732C118.557 61.9832 115.133 62.7609 115.886 64.536C111.904 62.2945 118.942 60.1789 120.02 62.732Z" fill="white"/>
</g>
<path d="M121.156 39.5069C117.337 45.3558 120.744 47.5439 124.572 41.7002C128.391 35.8517 124.984 33.6636 121.156 39.5069Z" fill="#B9B41A"/>
<g opacity="0.25">
<path d="M126.248 37.1894C124.155 37.8671 120.86 42.8937 121.103 45.0647C115.603 46.3229 125.175 31.7072 126.248 37.1894Z" fill="white"/>
</g>
<path d="M169.462 56.4977C169.517 58.6228 164.599 58.6228 164.655 56.4973C164.6 54.3726 169.517 54.3726 169.462 56.4977Z" fill="#8A2C44"/>
<g opacity="0.2">
<path d="M169.351 56.009C167.926 55.2792 165.053 56.2098 165.778 57.8839C162.12 55.8132 168.185 53.3998 169.351 56.009Z" fill="white"/>
</g>
<path d="M145.238 41.2535C157.262 46.9423 144.597 64.1354 133.246 58.5086C126.195 55.5979 126.089 50.0931 131.484 44.6942C136.879 39.295 140.796 38.8188 145.238 41.2535Z" fill="#DC7056"/>
<path d="M141.726 43.9596C141.761 46.3031 138.046 46.3031 138.081 43.9596C138.046 41.616 141.761 41.616 141.726 43.9596Z" fill="#8A2C44"/>
<path d="M143.186 51.0578C143.22 53.4014 139.506 53.4014 139.54 51.0578C139.506 48.7143 143.221 48.714 143.186 51.0578Z" fill="#8A2C44"/>
<path d="M134.998 50.027C135.032 52.3705 131.317 52.3705 131.352 50.027C131.318 47.6837 135.033 47.6837 134.998 50.027Z" fill="#8A2C44"/>
<path d="M184.472 59.697C183.792 59.6983 183.142 59.3657 182.751 58.8147C175.834 49.1216 163.302 40.0452 150.046 35.1282C135.527 29.7427 116.234 25.255 107.457 27.0991C106.444 27.3109 105.426 26.7642 105.054 25.8067C101.747 17.2958 104.475 6.95625 104.593 6.52033C109.706 1.15688 119.246 0.244041 129.359 0.00952148C159.33 0.694386 189.004 16.972 198.263 46.9125C198.553 47.7257 198.307 48.6313 197.646 49.1918C196.886 49.6057 185.31 60.3146 184.472 59.697ZM112.3 22.5015C139.839 24.4173 168.463 34.3298 184.816 54.57L193.8 46.9562C185.144 13.9374 134.748 -5.01084 108.48 8.38796C108.003 10.5941 106.874 17.0363 108.458 22.7107C109.654 22.5677 110.942 22.5015 112.3 22.5015Z" fill="#2C2323"/>
<path d="M196.278 47.6035L184.471 57.6085C168.806 36.0766 133.185 23.4349 107.02 25.0552C103.923 17.0838 106.628 7.06241 106.628 7.06241C136.623 -8.59926 188.004 13.6883 196.278 47.6035Z" fill="#F8EBCB"/>
<path d="M184.471 59.6969C183.034 59.7385 181.939 58.1513 182.514 56.8374C185.074 50.4594 189.715 46.5546 195.935 45.5447C202.198 45.7366 196.207 60.04 184.471 59.6969ZM193.435 50.5893C191.424 51.4707 189.734 52.8656 188.376 54.7638C190.864 53.9546 192.542 52.5701 193.435 50.5893Z" fill="#2C2323"/>
<path d="M184.472 57.6092C186.448 52.6866 190.08 48.6109 196.276 47.6052C195.849 53.7982 191.522 57.0267 184.472 57.6092Z" fill="#EECCA9"/>
<g opacity="0.7">
<path d="M141.624 3.31647C129.184 2.89139 120.068 5.87978 115.54 7.81694C109.507 10.312 112.15 20.9317 112.03 24.5997C110.163 24.6083 108.474 24.75 107.02 25.055C103.923 17.0836 106.628 7.06223 106.628 7.06223C114.293 2.23079 127.457 0.790218 141.624 3.31647Z" fill="white"/>
</g>
</svg>
