<svg width="163" height="161" viewBox="0 0 163 161" fill="none" xmlns="http://www.w3.org/2000/svg">
<path d="M73.1275 160.775C61.897 160.632 38.2252 157.277 28.412 145.126C26.6908 143.278 64.7664 131.276 65.1904 130.605C94.7689 91.0933 108.553 84.1499 144.216 34.1601C144.978 33.1019 146.704 33.0413 147.523 34.0725C174.97 62.6521 161.979 115.008 123.292 123.655C116.719 125.347 112.998 124.924 108.556 126.027C108.992 149.686 98.1577 161.189 73.1275 160.775ZM35.1049 145.961C54.3304 157.142 72.5334 158.939 90.2892 154.16C101.14 150.444 104.523 137.663 104.15 129.979C104.007 127.036 104.018 124.661 105.537 123.115C106.886 121.741 108.824 121.551 111.757 121.261C152.352 120.779 172.708 68.9727 145.969 38.8085C139.449 47.7422 96.1416 103.695 96.7099 98.9994C93.857 99.7112 79.2897 119.54 67.2383 134.31C67.2377 134.309 35.1049 145.961 35.1049 145.961Z" fill="#2C2323"/>
<path d="M145.906 35.4106C173.362 63.6521 158.328 114.308 122.811 121.622C107.75 125.115 105.827 121.092 106.254 129.879C106.845 165.81 62.5448 165.854 30.501 145.408L66.5138 132.348C81.0209 112.036 132.879 56.3361 145.906 35.4106Z" fill="#B6405A"/>
<path d="M63.7579 157.702C12.0782 158.809 -11.4797 96.1648 7.42699 52.2768C23.8453 -2.32699 92.2113 -16.821 137.053 23.5863C149.081 33.0924 155.815 44.6652 157.066 57.9807C160.605 88.5054 132.648 118.978 108.816 117.356C101.304 117.357 98.6019 118.875 97.6579 120.148C95.2052 124.979 101.54 131.611 98.6248 139.633C95.4909 150.972 76.8178 158.159 63.7579 157.702ZM79.536 4.27794C15.3147 2.22401 -13.3409 83.9796 18.2792 130.216C32.5611 151.788 61.991 158.102 80.5174 150.464C93.2738 145.327 97.7612 138.06 93.5598 127.009C90.562 116.393 97.0426 113.286 108.817 113.181C120.334 113.181 136.109 106.796 145.849 88.8727C172.128 49.0903 124.302 4.98675 79.536 4.27794Z" fill="#2C2323"/>
<path d="M147.704 89.8616C128.267 128.213 89.516 105.42 95.5696 126.385C107.217 153.528 58.6684 162.869 36.7324 149.092C32.0554 146.713 27.6518 143.678 23.7708 139.986C-31.0481 81.0548 30.5447 -30.9008 113.619 10.7641C147.254 27.1838 166.955 55.0683 147.704 89.8616Z" fill="#F8EBCB"/>
<path d="M63.7516 148.115C-8.44777 145.987 -3.74823 28.2641 59.8647 12.5539C86.59 5.58688 105.53 11.3712 131.008 31.0918C140.897 38.9097 146.418 48.2561 147.416 58.8718C150.236 83.2209 127.944 109.098 108.817 107.753C96.9089 106.833 83.0919 113.881 88.3333 128.633C89.3137 131.733 90.0668 134.492 89.3458 136.862C85.2087 145.078 73.1735 147.96 63.7516 148.115Z" fill="#DC7056"/>
<path d="M83.9264 104.789C83.5908 124.271 54.3469 124.268 54.0139 104.789C54.3499 85.3075 83.5938 85.3104 83.9264 104.789Z" fill="#F8EBCB"/>
<g opacity="0.25">
<path d="M147.704 89.8618C128.227 128.247 89.5259 105.4 95.5696 126.385C107.211 153.565 58.6615 162.847 36.7324 149.093C63.5788 155.307 81.0454 141.08 81.8964 134.75C83.034 126.278 79.4735 120.21 85.314 112.448C91.1545 104.685 100.412 105.671 121.069 98.3301C141.721 90.9934 156.532 70.6705 154.333 53.8008C156.865 66.6492 153.33 79.5104 147.704 89.8618Z" fill="black"/>
</g>
<g opacity="0.35">
<path d="M113.618 10.7622C46.2781 -17.3041 -9.26597 79.6596 23.7708 139.986C-31.0617 81.0414 30.5633 -30.8971 113.618 10.7622Z" fill="white"/>
</g>
</svg>
